<svg width="306" height="60" viewBox="0 0 306 60" fill="none" xmlns="http://www.w3.org/2000/svg">
<path d="M6.36649 8.732C5.50409 8.732 4.76489 8.424 4.14889 7.808C3.57395 7.192 3.28649 6.41173 3.28649 5.4672C3.28649 4.52266 3.57395 3.76293 4.14889 3.188C4.76489 2.572 5.50409 2.264 6.36649 2.264C7.22889 2.264 7.94755 2.572 8.52249 3.188C9.09742 3.76293 9.38489 4.52266 9.38489 5.4672C9.38489 6.41173 9.09742 7.192 8.52249 7.808C7.94755 8.424 7.22889 8.732 6.36649 8.732ZM1.19209 46C0.576086 46 0.268086 45.7741 0.268086 45.3224C0.268086 44.9528 0.535019 44.7064 1.06889 44.5832L1.80809 44.46C2.83475 44.2957 3.49182 44.0493 3.77929 43.7208C4.06675 43.3512 4.21049 42.7352 4.21049 41.8728V21.1752C4.21049 20.436 4.08729 19.9432 3.84089 19.6968C3.63555 19.4093 3.24542 19.2245 2.67049 19.1424L1.37689 18.9576C0.843019 18.9165 0.576086 18.6907 0.576086 18.28C0.576086 17.9515 0.904619 17.7256 1.56169 17.6024C2.83475 17.3971 3.86142 17.0685 4.64169 16.6168C5.42195 16.1651 6.18169 15.6107 6.92089 14.9536C7.29049 14.584 7.59849 14.3992 7.84489 14.3992C8.21449 14.3992 8.39929 14.6456 8.39929 15.1384V41.8728C8.39929 42.7352 8.52249 43.3512 8.76889 43.7208C9.01529 44.0904 9.48755 44.3163 10.1857 44.3984L11.7257 44.5832C12.1774 44.6653 12.4033 44.8912 12.4033 45.2608C12.4033 45.7536 12.0953 46 11.4793 46H1.19209ZM12.4437 46C11.8277 46 11.5197 45.7741 11.5197 45.3224C11.5197 44.9528 11.7866 44.7064 12.3205 44.5832L13.0597 44.46C13.9221 44.2957 14.4765 44.0493 14.7229 43.7208C15.0104 43.3512 15.1541 42.7352 15.1541 41.8728V21.1752C15.1541 20.436 15.0309 19.9432 14.7845 19.6968C14.5792 19.4093 14.189 19.2245 13.6141 19.1424L12.3205 18.9576C11.7866 18.9165 11.5197 18.6907 11.5197 18.28C11.5197 17.9515 11.8482 17.7256 12.5053 17.6024C13.7784 17.3971 14.7434 17.0685 15.4005 16.6168C16.0986 16.1651 16.8173 15.6107 17.5565 14.9536C17.9261 14.584 18.2341 14.3992 18.4805 14.3992C18.8501 14.3992 19.0349 14.6456 19.0349 15.1384V17.9104C19.0349 18.28 19.1581 18.5264 19.4045 18.6496C19.692 18.7317 20 18.6085 20.3285 18.28C21.9712 16.7195 23.4085 15.6517 24.6405 15.0768C25.9136 14.5019 27.2482 14.2144 28.6445 14.2144C30.4925 14.2144 31.9709 14.8715 33.0797 16.1856C34.1885 17.4587 34.7429 19.3477 34.7429 21.8528V41.8728C34.7429 42.7352 34.8661 43.3512 35.1125 43.7208C35.4 44.0493 35.9749 44.2752 36.8373 44.3984L38.1925 44.5832C38.6442 44.6653 38.8701 44.9117 38.8701 45.3224C38.8701 45.7741 38.6237 46 38.1309 46H27.7821C27.2072 46 26.9197 45.7741 26.9197 45.3224C26.9197 44.9117 27.1456 44.6653 27.5973 44.5832L28.4597 44.46C29.3221 44.3368 29.8765 44.0904 30.1229 43.7208C30.4104 43.3512 30.5541 42.7352 30.5541 41.8728V22.5304C30.5541 20.5181 30.1845 19.1013 29.4453 18.28C28.7061 17.4587 27.6589 17.048 26.3037 17.048C24.9896 17.048 23.7986 17.4381 22.7309 18.2184C21.7042 18.9576 20.8829 19.9637 20.2669 21.2368C19.6509 22.4688 19.3429 23.8445 19.3429 25.364V41.8728C19.3429 42.7352 19.4661 43.3512 19.7125 43.7208C20 44.0904 20.5749 44.3163 21.4373 44.3984L23.1005 44.5832C23.5522 44.6653 23.7781 44.8912 23.7781 45.2608C23.7781 45.7536 23.4701 46 22.8541 46H12.4437ZM55.6037 46.5544C54.577 46.5544 53.5914 46.3285 52.6469 45.8768C51.7023 45.4251 50.9221 44.7064 50.3061 43.7208C49.6901 42.7352 49.3821 41.4211 49.3821 39.7784V18.3416C49.3821 17.6024 49.2589 17.0891 49.0125 16.8016C48.8071 16.5141 48.417 16.3499 47.8421 16.3088L46.7949 16.1856C46.0967 16.1035 45.7477 15.8365 45.7477 15.3848C45.7477 14.8509 46.1378 14.584 46.9181 14.584H52.6469C53.2629 14.584 53.5709 14.892 53.5709 15.508V38.4848C53.5709 40.3739 53.9199 41.7291 54.6181 42.5504C55.3573 43.3307 56.3634 43.7208 57.6365 43.7208C58.9095 43.7208 60.0389 43.3717 61.0245 42.6736C62.0101 41.9344 62.7903 40.9693 63.3653 39.7784C63.9813 38.5464 64.2893 37.2117 64.2893 35.7744V18.3416C64.2893 17.6024 64.1661 17.0891 63.9197 16.8016C63.7143 16.5141 63.3242 16.3499 62.7493 16.3088L61.7021 16.1856C61.0039 16.1035 60.6549 15.8365 60.6549 15.3848C60.6549 14.8509 61.045 14.584 61.8253 14.584H67.5541C68.1701 14.584 68.4781 14.892 68.4781 15.508V39.4088C68.4781 40.148 68.5807 40.6613 68.7861 40.9488C69.0325 41.1952 69.4431 41.3595 70.0181 41.4416L71.3117 41.6264C71.8455 41.6675 72.1125 41.8728 72.1125 42.2424C72.1125 42.612 71.7839 42.8584 71.1269 42.9816C69.8538 43.1459 68.8271 43.4744 68.0469 43.9672C67.3077 44.46 66.6506 45.0555 66.0757 45.7536C65.7061 46.1232 65.3981 46.308 65.1517 46.308C64.7821 46.308 64.5973 46.0616 64.5973 45.5688V42.7352C64.5973 42.4067 64.4741 42.2219 64.2277 42.1808C64.0223 42.0987 63.7965 42.1808 63.5501 42.4272C62.0306 43.9467 60.6754 45.0144 59.4845 45.6304C58.3346 46.2464 57.041 46.5544 55.6037 46.5544ZM72.4267 46C71.8107 46 71.5027 45.7741 71.5027 45.3224C71.5027 44.9528 71.7696 44.7064 72.3035 44.5832L73.0427 44.46C73.9051 44.2957 74.4595 44.0493 74.7059 43.7208C74.9934 43.3512 75.1371 42.7352 75.1371 41.8728V21.1752C75.1371 20.436 75.0139 19.9432 74.7675 19.6968C74.5622 19.4093 74.172 19.2245 73.5971 19.1424L72.3035 18.9576C71.7696 18.9165 71.5027 18.6907 71.5027 18.28C71.5027 17.9515 71.8312 17.7256 72.4883 17.6024C73.7614 17.3971 74.7264 17.0685 75.3835 16.6168C76.0816 16.1651 76.8003 15.6107 77.5395 14.9536C77.9091 14.584 78.2171 14.3992 78.4635 14.3992C78.8331 14.3992 79.0179 14.6456 79.0179 15.1384V17.9104C79.0179 18.1979 79.1411 18.4237 79.3875 18.588C79.6339 18.7112 79.9008 18.6291 80.1883 18.3416C81.872 16.74 83.3299 15.6517 84.5619 15.0768C85.835 14.5019 87.108 14.2144 88.3811 14.2144C89.572 14.2144 90.6192 14.5429 91.5227 15.2C92.4672 15.816 93.1654 16.7605 93.6171 18.0336C93.7403 18.3621 93.9456 18.5675 94.2331 18.6496C94.5616 18.6907 94.8696 18.5675 95.1571 18.28C96.8408 16.7195 98.2987 15.6517 99.5307 15.0768C100.763 14.5019 102.015 14.2144 103.288 14.2144C105.013 14.2144 106.409 14.8715 107.477 16.1856C108.586 17.4587 109.14 19.3477 109.14 21.8528V41.8728C109.14 42.7352 109.264 43.3512 109.51 43.7208C109.797 44.0493 110.372 44.2752 111.235 44.3984L112.59 44.5832C113.042 44.6653 113.268 44.9117 113.268 45.3224C113.268 45.7741 113.021 46 112.528 46H101.995C101.42 46 101.132 45.7741 101.132 45.3224C101.132 44.9117 101.358 44.6653 101.81 44.5832L102.672 44.46C103.617 44.3368 104.233 44.0904 104.52 43.7208C104.808 43.3512 104.952 42.7352 104.952 41.8728V22.5304C104.952 20.5181 104.582 19.1013 103.843 18.28C103.145 17.4587 102.18 17.048 100.948 17.048C99.7155 17.048 98.5862 17.4381 97.5595 18.2184C96.5739 18.9576 95.7731 19.9637 95.1571 21.2368C94.5411 22.4688 94.2331 23.8445 94.2331 25.364V41.8728C94.2331 42.7352 94.3768 43.3512 94.6643 43.7208C94.9518 44.0493 95.5472 44.2752 96.4507 44.3984L97.8059 44.5832C98.2576 44.6653 98.4835 44.9117 98.4835 45.3224C98.4835 45.7741 98.2371 46 97.7443 46H87.2723C86.6974 46 86.4099 45.7741 86.4099 45.3224C86.4099 44.9117 86.6358 44.6653 87.0875 44.5832L87.9499 44.46C88.8123 44.3368 89.3667 44.0904 89.6131 43.7208C89.9006 43.3512 90.0443 42.7352 90.0443 41.8728V22.5304C90.0443 20.5181 89.6747 19.1013 88.9355 18.28C88.2374 17.4587 87.2723 17.048 86.0403 17.048C84.8083 17.048 83.679 17.4381 82.6523 18.2184C81.6667 18.9576 80.8659 19.9637 80.2499 21.2368C79.6339 22.4688 79.3259 23.8445 79.3259 25.364V41.8728C79.3259 42.7352 79.4491 43.3512 79.6955 43.7208C79.983 44.0904 80.5579 44.3163 81.4203 44.3984L83.0835 44.5832C83.5352 44.6653 83.7611 44.8912 83.7611 45.2608C83.7611 45.7536 83.4531 46 82.8371 46H72.4267ZM124.177 46.5544C122.493 46.5544 120.871 46.0205 119.311 44.9528C118.407 44.3368 117.586 44.5011 116.847 45.4456C116.436 45.8973 116.128 46.1848 115.923 46.308C115.717 46.4723 115.512 46.5544 115.307 46.5544C114.855 46.5544 114.691 46.2669 114.814 45.692C114.978 44.7475 115.101 43.536 115.183 42.0576C115.266 40.5792 115.307 38.608 115.307 36.144V6.576C115.307 5.8368 115.183 5.344 114.937 5.0976C114.732 4.81013 114.342 4.62533 113.767 4.5432L112.473 4.35839C112.021 4.27626 111.795 4.02986 111.795 3.6192C111.795 3.20853 112.021 2.96213 112.473 2.88C113.623 2.6336 114.588 2.34613 115.368 2.0176C116.148 1.68906 116.806 1.36053 117.339 1.032C117.996 0.621331 118.489 0.415998 118.818 0.415998C119.27 0.415998 119.495 0.744531 119.495 1.4016V16.6168C119.495 16.9453 119.619 17.1712 119.865 17.2944C120.152 17.3765 120.46 17.2533 120.789 16.9248C122.555 15.1179 124.485 14.2144 126.579 14.2144C128.468 14.2144 130.132 14.8509 131.569 16.124C133.047 17.356 134.197 19.0808 135.019 21.2984C135.881 23.516 136.312 26.1237 136.312 29.1216C136.312 32.5301 135.778 35.5485 134.711 38.1768C133.643 40.8051 132.185 42.8584 130.337 44.3368C128.53 45.8152 126.477 46.5544 124.177 46.5544ZM124.054 45.0144C126.354 45.0144 128.202 43.6592 129.598 40.9488C131.035 38.2384 131.754 34.5835 131.754 29.984C131.754 25.7541 131.138 22.5304 129.906 20.3128C128.674 18.0952 126.928 16.9864 124.67 16.9864C123.274 16.9864 122.062 17.5613 121.035 18.7112C120.009 19.8611 119.495 21.4627 119.495 23.516V39.0392C119.495 40.8872 119.906 42.3451 120.727 43.4128C121.59 44.4805 122.699 45.0144 124.054 45.0144ZM145.821 18.5264C147.504 15.6517 149.537 14.2144 151.919 14.2144C153.274 14.2144 154.28 14.6251 154.938 15.4464C155.595 16.2267 155.923 17.1096 155.923 18.0952C155.923 18.8755 155.718 19.512 155.307 20.0048C154.938 20.4976 154.342 20.744 153.521 20.744C152.864 20.744 152.371 20.6003 152.042 20.3128C151.755 19.9843 151.508 19.6147 151.303 19.204C151.139 18.7933 150.934 18.4443 150.687 18.1568C150.441 17.8283 150.03 17.664 149.455 17.664C148.716 17.664 148.018 18.1157 147.361 19.0192C146.704 19.8816 146.149 21.052 145.698 22.5304C145.287 24.0088 145.082 25.6925 145.082 27.5816V41.8728C145.082 42.7352 145.205 43.3512 145.451 43.7208C145.739 44.0904 146.314 44.3163 147.176 44.3984L148.839 44.5832C149.291 44.6653 149.517 44.8912 149.517 45.2608C149.517 45.7536 149.209 46 148.593 46H138.182C137.566 46 137.258 45.7741 137.258 45.3224C137.258 44.9528 137.525 44.7064 138.059 44.5832L138.798 44.46C139.661 44.2957 140.215 44.0493 140.462 43.7208C140.749 43.3512 140.893 42.7352 140.893 41.8728V21.1752C140.893 20.436 140.77 19.9432 140.523 19.6968C140.318 19.4093 139.928 19.2245 139.353 19.1424L138.059 18.9576C137.525 18.9165 137.258 18.6907 137.258 18.28C137.258 17.9515 137.587 17.7256 138.244 17.6024C139.517 17.3971 140.482 17.0685 141.139 16.6168C141.837 16.1651 142.556 15.6107 143.295 14.9536C143.665 14.584 143.973 14.3992 144.219 14.3992C144.589 14.3992 144.774 14.6456 144.774 15.1384V18.4648C144.774 18.7523 144.897 18.9371 145.143 19.0192C145.39 19.0603 145.615 18.896 145.821 18.5264ZM159.79 46.5544C158.066 46.5544 156.649 46.0205 155.54 44.9528C154.431 43.844 153.877 42.3861 153.877 40.5792C153.877 38.8133 154.431 37.1501 155.54 35.5896C156.649 33.988 158.168 32.5507 160.098 31.2776C162.029 30.0045 164.226 28.9779 166.69 28.1976C167.224 28.0333 167.49 27.6843 167.49 27.1504V21.5448C167.49 19.5736 167.182 18.1773 166.566 17.356C165.95 16.4936 165.109 16.0624 164.041 16.0624C163.014 16.0624 162.07 16.5347 161.207 17.4792C160.386 18.3827 159.79 19.9227 159.421 22.0992C159.216 23.4133 158.764 24.3784 158.066 24.9944C157.409 25.5693 156.731 25.8568 156.033 25.8568C154.883 25.8568 154.308 25.2819 154.308 24.132C154.308 22.9411 154.637 21.7707 155.294 20.6208C155.992 19.4299 156.895 18.3621 158.004 17.4176C159.113 16.432 160.324 15.6517 161.638 15.0768C162.953 14.5019 164.267 14.2144 165.581 14.2144C169.646 14.2144 171.679 16.5757 171.679 21.2984V40.148C171.679 41.8728 172.11 42.7352 172.973 42.7352C173.507 42.7352 174 42.3861 174.451 41.688C174.903 40.9488 175.129 39.7168 175.129 37.992C175.129 37.3349 175.396 37.0064 175.93 37.0064C176.422 37.0064 176.669 37.3555 176.669 38.0536C176.669 41.0515 176.135 43.228 175.067 44.5832C174.041 45.8973 172.87 46.5544 171.556 46.5544C170.57 46.5544 169.79 46.1643 169.215 45.384C168.64 44.5627 168.25 43.5976 168.045 42.4888C168.004 42.0781 167.819 41.8728 167.49 41.8728C167.203 41.8317 166.916 42.0165 166.628 42.4272C165.642 43.7824 164.636 44.8091 163.61 45.5072C162.583 46.2053 161.31 46.5544 159.79 46.5544ZM161.454 43.7208C162.521 43.7208 163.507 43.3512 164.41 42.612C165.314 41.8317 166.053 40.8051 166.628 39.532C167.203 38.2589 167.49 36.8216 167.49 35.22V30.7232C167.49 29.9429 167.059 29.7171 166.197 30.0456C163.692 30.9491 161.741 32.2016 160.345 33.8032C158.99 35.3637 158.312 37.2528 158.312 39.4704C158.312 42.304 159.359 43.7208 161.454 43.7208ZM193.691 46.5544C191.884 46.5544 190.262 45.9384 188.825 44.7064C187.428 43.4333 186.34 41.688 185.56 39.4704C184.78 37.2117 184.39 34.604 184.39 31.6472C184.39 28.1976 184.923 25.1792 185.991 22.592C187.059 19.9637 188.537 17.9104 190.426 16.432C192.315 14.9536 194.451 14.2144 196.833 14.2144C197.408 14.2144 197.983 14.276 198.558 14.3992C199.132 14.4813 199.687 14.6456 200.221 14.892C200.878 15.2205 201.206 15.0768 201.206 14.4608V6.576C201.206 5.8368 201.083 5.32346 200.837 5.036C200.631 4.74853 200.241 4.58426 199.666 4.5432L198.065 4.35839C197.613 4.27626 197.387 4.02986 197.387 3.6192C197.387 3.20853 197.613 2.96213 198.065 2.88C199.379 2.6336 200.426 2.34613 201.206 2.0176C202.028 1.68906 202.705 1.36053 203.239 1.032C203.896 0.621331 204.389 0.415998 204.718 0.415998C205.169 0.415998 205.395 0.744531 205.395 1.4016V40.148C205.395 41.8728 205.826 42.7352 206.689 42.7352C207.223 42.7352 207.715 42.3861 208.167 41.688C208.619 40.9488 208.845 39.7168 208.845 37.992C208.845 37.3349 209.112 37.0064 209.646 37.0064C210.138 37.0064 210.385 37.3555 210.385 38.0536C210.385 41.0515 209.871 43.228 208.845 44.5832C207.818 45.8973 206.648 46.5544 205.334 46.5544C204.143 46.5544 203.239 46.1643 202.623 45.384C202.007 44.5627 201.596 43.5976 201.391 42.4888C201.35 42.1603 201.206 41.996 200.96 41.996C200.714 41.9549 200.488 42.0987 200.282 42.4272C199.132 44.0288 198.085 45.1171 197.141 45.692C196.196 46.2669 195.046 46.5544 193.691 46.5544ZM195.046 43.7208C196.114 43.7208 197.1 43.3717 198.003 42.6736C198.948 41.9344 199.707 40.9488 200.282 39.7168C200.898 38.4848 201.206 37.1091 201.206 35.5896V21.7296C201.206 19.8816 200.775 18.4237 199.913 17.356C199.091 16.2883 198.003 15.7544 196.648 15.7544C194.348 15.7544 192.48 17.1096 191.042 19.82C189.646 22.4893 188.948 26.1443 188.948 30.7848C188.948 35.0147 189.482 38.2384 190.55 40.456C191.658 42.6325 193.157 43.7208 195.046 43.7208ZM220.058 46.5544C218.087 46.5544 216.321 45.8973 214.76 44.5832C213.2 43.2691 211.947 41.4211 211.003 39.0392C210.099 36.6163 209.647 33.8237 209.647 30.6616C209.647 27.4173 210.12 24.5632 211.064 22.0992C212.009 19.6352 213.302 17.7051 214.945 16.3088C216.588 14.9125 218.415 14.2144 220.427 14.2144C222.85 14.2144 224.801 15.2205 226.279 17.2328C227.799 19.204 228.559 22.4277 228.559 26.904C228.559 28.2592 228.045 28.9368 227.019 28.9368H215.315C214.493 28.9368 214.083 29.4091 214.083 30.3536C214.083 34.7067 214.719 37.9715 215.992 40.148C217.265 42.3245 218.887 43.4128 220.859 43.4128C222.419 43.4128 223.692 42.8584 224.678 41.7496C225.663 40.6408 226.464 38.7723 227.08 36.144C227.203 35.6923 227.47 35.4664 227.881 35.4664C228.374 35.4664 228.559 35.8771 228.435 36.6984C227.778 40.3533 226.731 42.92 225.294 44.3984C223.857 45.8357 222.111 46.5544 220.058 46.5544ZM215.13 27.3968H221.351C223.323 27.3968 224.308 26.3701 224.308 24.3168C224.308 21.6475 223.98 19.5531 223.323 18.0336C222.666 16.5141 221.68 15.7544 220.366 15.7544C218.764 15.7544 217.409 16.6784 216.3 18.5264C215.233 20.3744 214.534 23.0027 214.206 26.4112C214.124 27.0683 214.432 27.3968 215.13 27.3968ZM235.733 46.5544C234.789 46.5544 233.782 46.4312 232.715 46.1848C231.647 45.9795 230.785 45.7125 230.128 45.384C229.758 45.1787 229.573 44.8296 229.573 44.3368L229.388 37.4376C229.388 36.7395 229.655 36.3904 230.189 36.3904C230.641 36.3904 230.949 36.7189 231.113 37.376C231.811 40.2917 232.653 42.2835 233.639 43.3512C234.665 44.4189 235.897 44.9528 237.335 44.9528C238.526 44.9528 239.511 44.5011 240.292 43.5976C241.072 42.6531 241.462 41.3595 241.462 39.7168C241.462 38.0741 241.01 36.6163 240.107 35.3432C239.203 34.0701 237.684 32.6739 235.548 31.1544C233.413 29.7171 231.852 28.2797 230.867 26.8424C229.881 25.364 229.388 23.7624 229.388 22.0376C229.388 19.6968 230.21 17.8077 231.852 16.3704C233.495 14.9331 235.672 14.2144 238.382 14.2144C239.203 14.2144 240.004 14.3171 240.784 14.5224C241.565 14.6867 242.263 14.9741 242.879 15.3848C243.248 15.6312 243.433 15.9597 243.433 16.3704L243.556 23.1464C243.556 23.7624 243.31 24.0704 242.817 24.0704C242.53 24.0704 242.324 23.9883 242.201 23.824C242.078 23.6187 241.975 23.3723 241.893 23.0848C241.072 20.4155 240.25 18.5675 239.429 17.5408C238.608 16.4731 237.602 15.9392 236.411 15.9392C235.343 15.9392 234.46 16.3088 233.762 17.048C233.064 17.7872 232.715 18.7112 232.715 19.82C232.715 21.2573 233.146 22.5099 234.008 23.5776C234.871 24.6453 236.431 25.9595 238.69 27.52C240.743 28.9984 242.283 30.6 243.31 32.3248C244.378 34.0085 244.912 35.8565 244.912 37.8688C244.912 40.4971 244.07 42.612 242.386 44.2136C240.702 45.7741 238.485 46.5544 235.733 46.5544ZM251.171 8.732C250.309 8.732 249.57 8.424 248.954 7.808C248.379 7.192 248.091 6.41173 248.091 5.4672C248.091 4.52266 248.379 3.76293 248.954 3.188C249.57 2.572 250.309 2.264 251.171 2.264C252.034 2.264 252.752 2.572 253.327 3.188C253.902 3.76293 254.19 4.52266 254.19 5.4672C254.19 6.41173 253.902 7.192 253.327 7.808C252.752 8.424 252.034 8.732 251.171 8.732ZM245.997 46C245.381 46 245.073 45.7741 245.073 45.3224C245.073 44.9528 245.34 44.7064 245.874 44.5832L246.613 44.46C247.639 44.2957 248.296 44.0493 248.584 43.7208C248.871 43.3512 249.015 42.7352 249.015 41.8728V21.1752C249.015 20.436 248.892 19.9432 248.646 19.6968C248.44 19.4093 248.05 19.2245 247.475 19.1424L246.182 18.9576C245.648 18.9165 245.381 18.6907 245.381 18.28C245.381 17.9515 245.709 17.7256 246.366 17.6024C247.639 17.3971 248.666 17.0685 249.446 16.6168C250.227 16.1651 250.986 15.6107 251.726 14.9536C252.095 14.584 252.403 14.3992 252.65 14.3992C253.019 14.3992 253.204 14.6456 253.204 15.1384V41.8728C253.204 42.7352 253.327 43.3512 253.574 43.7208C253.82 44.0904 254.292 44.3163 254.99 44.3984L256.53 44.5832C256.982 44.6653 257.208 44.8912 257.208 45.2608C257.208 45.7536 256.9 46 256.284 46H245.997ZM266.365 59.244C263.244 59.244 260.78 58.6075 258.973 57.3344C257.166 56.1024 256.263 54.6035 256.263 52.8376C256.263 52.0984 256.365 51.4208 256.571 50.8048C256.776 50.2299 257.207 49.5523 257.864 48.772C258.563 47.9917 259.61 46.9856 261.006 45.7536C261.499 45.3019 261.745 44.8912 261.745 44.5216C261.745 44.1109 261.499 43.8029 261.006 43.5976C259.528 42.9816 258.645 42.2013 258.357 41.2568C258.07 40.2712 258.419 39.3677 259.404 38.5464L263.84 34.7272C264.332 34.3165 264.312 33.9675 263.778 33.68C262.094 32.8587 260.76 31.5856 259.774 29.8608C258.788 28.136 258.296 26.288 258.296 24.3168C258.296 22.4277 258.706 20.7235 259.528 19.204C260.349 17.6845 261.458 16.4731 262.854 15.5696C264.25 14.6661 265.811 14.2144 267.536 14.2144C268.521 14.2144 269.466 14.3787 270.369 14.7072C270.944 14.9125 271.293 14.7277 271.416 14.1528C271.786 12.5923 272.464 11.3808 273.449 10.5184C274.476 9.61493 275.482 9.1632 276.468 9.1632C277.412 9.1632 278.172 9.45066 278.747 10.0256C279.363 10.5595 279.671 11.2371 279.671 12.0584C279.671 12.7565 279.465 13.3109 279.055 13.7216C278.644 14.1323 278.131 14.3376 277.515 14.3376C276.981 14.3376 276.591 14.2349 276.344 14.0296C276.098 13.8243 275.872 13.6189 275.667 13.4136C275.461 13.2083 275.133 13.1056 274.681 13.1056C273.696 13.1056 273.08 13.6395 272.833 14.7072C272.71 15.1179 272.71 15.4669 272.833 15.7544C272.997 16.0419 273.223 16.3293 273.511 16.6168C274.496 17.5613 275.256 18.7112 275.79 20.0664C276.365 21.4216 276.652 22.9205 276.652 24.5632C276.652 26.5344 276.242 28.3003 275.42 29.8608C274.64 31.4213 273.552 32.6533 272.156 33.5568C270.8 34.4603 269.26 34.912 267.536 34.912C266.796 34.912 266.16 35.0763 265.626 35.4048C265.092 35.6923 264.558 36.1235 264.024 36.6984L262.977 37.8688C262.443 38.5259 262.279 39.1624 262.484 39.7784C262.731 40.3533 263.306 40.6408 264.209 40.6408H269.507C272.464 40.6408 274.804 41.38 276.529 42.8584C278.254 44.2957 279.116 46.2875 279.116 48.8336C279.116 50.8459 278.541 52.6323 277.392 54.1928C276.242 55.7533 274.702 56.9853 272.772 57.8888C270.883 58.7923 268.747 59.244 266.365 59.244ZM267.474 33.372C268.952 33.372 270.123 32.5712 270.985 30.9696C271.848 29.368 272.279 27.1915 272.279 24.44C272.279 21.7707 271.827 19.6352 270.924 18.0336C270.061 16.3909 268.911 15.5696 267.474 15.5696C266.037 15.5696 264.866 16.3909 263.963 18.0336C263.1 19.6352 262.669 21.7707 262.669 24.44C262.669 27.1915 263.1 29.368 263.963 30.9696C264.825 32.5712 265.996 33.372 267.474 33.372ZM267.104 57.8888C268.583 57.8888 269.938 57.5603 271.17 56.9032C272.402 56.2461 273.367 55.3221 274.065 54.1312C274.804 52.9813 275.174 51.6672 275.174 50.1888C275.174 48.3408 274.62 46.924 273.511 45.9384C272.443 44.9117 270.924 44.3984 268.952 44.3984H267.536C266.263 44.3984 265.297 44.5216 264.64 44.768C264.024 45.0144 263.429 45.4456 262.854 46.0616C261.581 47.4168 260.78 48.5051 260.452 49.3264C260.123 50.1477 259.959 50.9896 259.959 51.852C259.959 53.6589 260.575 55.1168 261.807 56.2256C263.08 57.3344 264.846 57.8888 267.104 57.8888ZM279.569 46C278.953 46 278.645 45.7741 278.645 45.3224C278.645 44.9528 278.912 44.7064 279.446 44.5832L280.185 44.46C281.047 44.2957 281.602 44.0493 281.848 43.7208C282.135 43.3512 282.279 42.7352 282.279 41.8728V21.1752C282.279 20.436 282.156 19.9432 281.91 19.6968C281.704 19.4093 281.314 19.2245 280.739 19.1424L279.446 18.9576C278.912 18.9165 278.645 18.6907 278.645 18.28C278.645 17.9515 278.973 17.7256 279.63 17.6024C280.903 17.3971 281.868 17.0685 282.526 16.6168C283.224 16.1651 283.942 15.6107 284.682 14.9536C285.051 14.584 285.359 14.3992 285.606 14.3992C285.975 14.3992 286.16 14.6456 286.16 15.1384V17.9104C286.16 18.28 286.283 18.5264 286.53 18.6496C286.817 18.7317 287.125 18.6085 287.454 18.28C289.096 16.7195 290.534 15.6517 291.766 15.0768C293.039 14.5019 294.373 14.2144 295.77 14.2144C297.618 14.2144 299.096 14.8715 300.205 16.1856C301.314 17.4587 301.868 19.3477 301.868 21.8528V41.8728C301.868 42.7352 301.991 43.3512 302.238 43.7208C302.525 44.0493 303.1 44.2752 303.962 44.3984L305.318 44.5832C305.769 44.6653 305.995 44.9117 305.995 45.3224C305.995 45.7741 305.749 46 305.256 46H294.907C294.332 46 294.045 45.7741 294.045 45.3224C294.045 44.9117 294.271 44.6653 294.722 44.5832L295.585 44.46C296.447 44.3368 297.002 44.0904 297.248 43.7208C297.535 43.3512 297.679 42.7352 297.679 41.8728V22.5304C297.679 20.5181 297.31 19.1013 296.57 18.28C295.831 17.4587 294.784 17.048 293.429 17.048C292.115 17.048 290.924 17.4381 289.856 18.2184C288.829 18.9576 288.008 19.9637 287.392 21.2368C286.776 22.4688 286.468 23.8445 286.468 25.364V41.8728C286.468 42.7352 286.591 43.3512 286.838 43.7208C287.125 44.0904 287.7 44.3163 288.562 44.3984L290.226 44.5832C290.677 44.6653 290.903 44.8912 290.903 45.2608C290.903 45.7536 290.595 46 289.979 46H279.569Z" fill="#F1F1F1"/>
<path d="M6.36649 8.732C5.50409 8.732 4.76489 8.424 4.14889 7.808C3.57395 7.192 3.28649 6.41173 3.28649 5.4672C3.28649 4.52266 3.57395 3.76293 4.14889 3.188C4.76489 2.572 5.50409 2.264 6.36649 2.264C7.22889 2.264 7.94755 2.572 8.52249 3.188C9.09742 3.76293 9.38489 4.52266 9.38489 5.4672C9.38489 6.41173 9.09742 7.192 8.52249 7.808C7.94755 8.424 7.22889 8.732 6.36649 8.732ZM1.19209 46C0.576086 46 0.268086 45.7741 0.268086 45.3224C0.268086 44.9528 0.535019 44.7064 1.06889 44.5832L1.80809 44.46C2.83475 44.2957 3.49182 44.0493 3.77929 43.7208C4.06675 43.3512 4.21049 42.7352 4.21049 41.8728V21.1752C4.21049 20.436 4.08729 19.9432 3.84089 19.6968C3.63555 19.4093 3.24542 19.2245 2.67049 19.1424L1.37689 18.9576C0.843019 18.9165 0.576086 18.6907 0.576086 18.28C0.576086 17.9515 0.904619 17.7256 1.56169 17.6024C2.83475 17.3971 3.86142 17.0685 4.64169 16.6168C5.42195 16.1651 6.18169 15.6107 6.92089 14.9536C7.29049 14.584 7.59849 14.3992 7.84489 14.3992C8.21449 14.3992 8.39929 14.6456 8.39929 15.1384V41.8728C8.39929 42.7352 8.52249 43.3512 8.76889 43.7208C9.01529 44.0904 9.48755 44.3163 10.1857 44.3984L11.7257 44.5832C12.1774 44.6653 12.4033 44.8912 12.4033 45.2608C12.4033 45.7536 12.0953 46 11.4793 46H1.19209ZM12.4437 46C11.8277 46 11.5197 45.7741 11.5197 45.3224C11.5197 44.9528 11.7866 44.7064 12.3205 44.5832L13.0597 44.46C13.9221 44.2957 14.4765 44.0493 14.7229 43.7208C15.0104 43.3512 15.1541 42.7352 15.1541 41.8728V21.1752C15.1541 20.436 15.0309 19.9432 14.7845 19.6968C14.5792 19.4093 14.189 19.2245 13.6141 19.1424L12.3205 18.9576C11.7866 18.9165 11.5197 18.6907 11.5197 18.28C11.5197 17.9515 11.8482 17.7256 12.5053 17.6024C13.7784 17.3971 14.7434 17.0685 15.4005 16.6168C16.0986 16.1651 16.8173 15.6107 17.5565 14.9536C17.9261 14.584 18.2341 14.3992 18.4805 14.3992C18.8501 14.3992 19.0349 14.6456 19.0349 15.1384V17.9104C19.0349 18.28 19.1581 18.5264 19.4045 18.6496C19.692 18.7317 20 18.6085 20.3285 18.28C21.9712 16.7195 23.4085 15.6517 24.6405 15.0768C25.9136 14.5019 27.2482 14.2144 28.6445 14.2144C30.4925 14.2144 31.9709 14.8715 33.0797 16.1856C34.1885 17.4587 34.7429 19.3477 34.7429 21.8528V41.8728C34.7429 42.7352 34.8661 43.3512 35.1125 43.7208C35.4 44.0493 35.9749 44.2752 36.8373 44.3984L38.1925 44.5832C38.6442 44.6653 38.8701 44.9117 38.8701 45.3224C38.8701 45.7741 38.6237 46 38.1309 46H27.7821C27.2072 46 26.9197 45.7741 26.9197 45.3224C26.9197 44.9117 27.1456 44.6653 27.5973 44.5832L28.4597 44.46C29.3221 44.3368 29.8765 44.0904 30.1229 43.7208C30.4104 43.3512 30.5541 42.7352 30.5541 41.8728V22.5304C30.5541 20.5181 30.1845 19.1013 29.4453 18.28C28.7061 17.4587 27.6589 17.048 26.3037 17.048C24.9896 17.048 23.7986 17.4381 22.7309 18.2184C21.7042 18.9576 20.8829 19.9637 20.2669 21.2368C19.6509 22.4688 19.3429 23.8445 19.3429 25.364V41.8728C19.3429 42.7352 19.4661 43.3512 19.7125 43.7208C20 44.0904 20.5749 44.3163 21.4373 44.3984L23.1005 44.5832C23.5522 44.6653 23.7781 44.8912 23.7781 45.2608C23.7781 45.7536 23.4701 46 22.8541 46H12.4437ZM55.6037 46.5544C54.577 46.5544 53.5914 46.3285 52.6469 45.8768C51.7023 45.4251 50.9221 44.7064 50.3061 43.7208C49.6901 42.7352 49.3821 41.4211 49.3821 39.7784V18.3416C49.3821 17.6024 49.2589 17.0891 49.0125 16.8016C48.8071 16.5141 48.417 16.3499 47.8421 16.3088L46.7949 16.1856C46.0967 16.1035 45.7477 15.8365 45.7477 15.3848C45.7477 14.8509 46.1378 14.584 46.9181 14.584H52.6469C53.2629 14.584 53.5709 14.892 53.5709 15.508V38.4848C53.5709 40.3739 53.9199 41.7291 54.6181 42.5504C55.3573 43.3307 56.3634 43.7208 57.6365 43.7208C58.9095 43.7208 60.0389 43.3717 61.0245 42.6736C62.0101 41.9344 62.7903 40.9693 63.3653 39.7784C63.9813 38.5464 64.2893 37.2117 64.2893 35.7744V18.3416C64.2893 17.6024 64.1661 17.0891 63.9197 16.8016C63.7143 16.5141 63.3242 16.3499 62.7493 16.3088L61.7021 16.1856C61.0039 16.1035 60.6549 15.8365 60.6549 15.3848C60.6549 14.8509 61.045 14.584 61.8253 14.584H67.5541C68.1701 14.584 68.4781 14.892 68.4781 15.508V39.4088C68.4781 40.148 68.5807 40.6613 68.7861 40.9488C69.0325 41.1952 69.4431 41.3595 70.0181 41.4416L71.3117 41.6264C71.8455 41.6675 72.1125 41.8728 72.1125 42.2424C72.1125 42.612 71.7839 42.8584 71.1269 42.9816C69.8538 43.1459 68.8271 43.4744 68.0469 43.9672C67.3077 44.46 66.6506 45.0555 66.0757 45.7536C65.7061 46.1232 65.3981 46.308 65.1517 46.308C64.7821 46.308 64.5973 46.0616 64.5973 45.5688V42.7352C64.5973 42.4067 64.4741 42.2219 64.2277 42.1808C64.0223 42.0987 63.7965 42.1808 63.5501 42.4272C62.0306 43.9467 60.6754 45.0144 59.4845 45.6304C58.3346 46.2464 57.041 46.5544 55.6037 46.5544ZM72.4267 46C71.8107 46 71.5027 45.7741 71.5027 45.3224C71.5027 44.9528 71.7696 44.7064 72.3035 44.5832L73.0427 44.46C73.9051 44.2957 74.4595 44.0493 74.7059 43.7208C74.9934 43.3512 75.1371 42.7352 75.1371 41.8728V21.1752C75.1371 20.436 75.0139 19.9432 74.7675 19.6968C74.5622 19.4093 74.172 19.2245 73.5971 19.1424L72.3035 18.9576C71.7696 18.9165 71.5027 18.6907 71.5027 18.28C71.5027 17.9515 71.8312 17.7256 72.4883 17.6024C73.7614 17.3971 74.7264 17.0685 75.3835 16.6168C76.0816 16.1651 76.8003 15.6107 77.5395 14.9536C77.9091 14.584 78.2171 14.3992 78.4635 14.3992C78.8331 14.3992 79.0179 14.6456 79.0179 15.1384V17.9104C79.0179 18.1979 79.1411 18.4237 79.3875 18.588C79.6339 18.7112 79.9008 18.6291 80.1883 18.3416C81.872 16.74 83.3299 15.6517 84.5619 15.0768C85.835 14.5019 87.108 14.2144 88.3811 14.2144C89.572 14.2144 90.6192 14.5429 91.5227 15.2C92.4672 15.816 93.1654 16.7605 93.6171 18.0336C93.7403 18.3621 93.9456 18.5675 94.2331 18.6496C94.5616 18.6907 94.8696 18.5675 95.1571 18.28C96.8408 16.7195 98.2987 15.6517 99.5307 15.0768C100.763 14.5019 102.015 14.2144 103.288 14.2144C105.013 14.2144 106.409 14.8715 107.477 16.1856C108.586 17.4587 109.14 19.3477 109.14 21.8528V41.8728C109.14 42.7352 109.264 43.3512 109.51 43.7208C109.797 44.0493 110.372 44.2752 111.235 44.3984L112.59 44.5832C113.042 44.6653 113.268 44.9117 113.268 45.3224C113.268 45.7741 113.021 46 112.528 46H101.995C101.42 46 101.132 45.7741 101.132 45.3224C101.132 44.9117 101.358 44.6653 101.81 44.5832L102.672 44.46C103.617 44.3368 104.233 44.0904 104.52 43.7208C104.808 43.3512 104.952 42.7352 104.952 41.8728V22.5304C104.952 20.5181 104.582 19.1013 103.843 18.28C103.145 17.4587 102.18 17.048 100.948 17.048C99.7155 17.048 98.5862 17.4381 97.5595 18.2184C96.5739 18.9576 95.7731 19.9637 95.1571 21.2368C94.5411 22.4688 94.2331 23.8445 94.2331 25.364V41.8728C94.2331 42.7352 94.3768 43.3512 94.6643 43.7208C94.9518 44.0493 95.5472 44.2752 96.4507 44.3984L97.8059 44.5832C98.2576 44.6653 98.4835 44.9117 98.4835 45.3224C98.4835 45.7741 98.2371 46 97.7443 46H87.2723C86.6974 46 86.4099 45.7741 86.4099 45.3224C86.4099 44.9117 86.6358 44.6653 87.0875 44.5832L87.9499 44.46C88.8123 44.3368 89.3667 44.0904 89.6131 43.7208C89.9006 43.3512 90.0443 42.7352 90.0443 41.8728V22.5304C90.0443 20.5181 89.6747 19.1013 88.9355 18.28C88.2374 17.4587 87.2723 17.048 86.0403 17.048C84.8083 17.048 83.679 17.4381 82.6523 18.2184C81.6667 18.9576 80.8659 19.9637 80.2499 21.2368C79.6339 22.4688 79.3259 23.8445 79.3259 25.364V41.8728C79.3259 42.7352 79.4491 43.3512 79.6955 43.7208C79.983 44.0904 80.5579 44.3163 81.4203 44.3984L83.0835 44.5832C83.5352 44.6653 83.7611 44.8912 83.7611 45.2608C83.7611 45.7536 83.4531 46 82.8371 46H72.4267ZM124.177 46.5544C122.493 46.5544 120.871 46.0205 119.311 44.9528C118.407 44.3368 117.586 44.5011 116.847 45.4456C116.436 45.8973 116.128 46.1848 115.923 46.308C115.717 46.4723 115.512 46.5544 115.307 46.5544C114.855 46.5544 114.691 46.2669 114.814 45.692C114.978 44.7475 115.101 43.536 115.183 42.0576C115.266 40.5792 115.307 38.608 115.307 36.144V6.576C115.307 5.8368 115.183 5.344 114.937 5.0976C114.732 4.81013 114.342 4.62533 113.767 4.5432L112.473 4.35839C112.021 4.27626 111.795 4.02986 111.795 3.6192C111.795 3.20853 112.021 2.96213 112.473 2.88C113.623 2.6336 114.588 2.34613 115.368 2.0176C116.148 1.68906 116.806 1.36053 117.339 1.032C117.996 0.621331 118.489 0.415998 118.818 0.415998C119.27 0.415998 119.495 0.744531 119.495 1.4016V16.6168C119.495 16.9453 119.619 17.1712 119.865 17.2944C120.152 17.3765 120.46 17.2533 120.789 16.9248C122.555 15.1179 124.485 14.2144 126.579 14.2144C128.468 14.2144 130.132 14.8509 131.569 16.124C133.047 17.356 134.197 19.0808 135.019 21.2984C135.881 23.516 136.312 26.1237 136.312 29.1216C136.312 32.5301 135.778 35.5485 134.711 38.1768C133.643 40.8051 132.185 42.8584 130.337 44.3368C128.53 45.8152 126.477 46.5544 124.177 46.5544ZM124.054 45.0144C126.354 45.0144 128.202 43.6592 129.598 40.9488C131.035 38.2384 131.754 34.5835 131.754 29.984C131.754 25.7541 131.138 22.5304 129.906 20.3128C128.674 18.0952 126.928 16.9864 124.67 16.9864C123.274 16.9864 122.062 17.5613 121.035 18.7112C120.009 19.8611 119.495 21.4627 119.495 23.516V39.0392C119.495 40.8872 119.906 42.3451 120.727 43.4128C121.59 44.4805 122.699 45.0144 124.054 45.0144ZM145.821 18.5264C147.504 15.6517 149.537 14.2144 151.919 14.2144C153.274 14.2144 154.28 14.6251 154.938 15.4464C155.595 16.2267 155.923 17.1096 155.923 18.0952C155.923 18.8755 155.718 19.512 155.307 20.0048C154.938 20.4976 154.342 20.744 153.521 20.744C152.864 20.744 152.371 20.6003 152.042 20.3128C151.755 19.9843 151.508 19.6147 151.303 19.204C151.139 18.7933 150.934 18.4443 150.687 18.1568C150.441 17.8283 150.03 17.664 149.455 17.664C148.716 17.664 148.018 18.1157 147.361 19.0192C146.704 19.8816 146.149 21.052 145.698 22.5304C145.287 24.0088 145.082 25.6925 145.082 27.5816V41.8728C145.082 42.7352 145.205 43.3512 145.451 43.7208C145.739 44.0904 146.314 44.3163 147.176 44.3984L148.839 44.5832C149.291 44.6653 149.517 44.8912 149.517 45.2608C149.517 45.7536 149.209 46 148.593 46H138.182C137.566 46 137.258 45.7741 137.258 45.3224C137.258 44.9528 137.525 44.7064 138.059 44.5832L138.798 44.46C139.661 44.2957 140.215 44.0493 140.462 43.7208C140.749 43.3512 140.893 42.7352 140.893 41.8728V21.1752C140.893 20.436 140.77 19.9432 140.523 19.6968C140.318 19.4093 139.928 19.2245 139.353 19.1424L138.059 18.9576C137.525 18.9165 137.258 18.6907 137.258 18.28C137.258 17.9515 137.587 17.7256 138.244 17.6024C139.517 17.3971 140.482 17.0685 141.139 16.6168C141.837 16.1651 142.556 15.6107 143.295 14.9536C143.665 14.584 143.973 14.3992 144.219 14.3992C144.589 14.3992 144.774 14.6456 144.774 15.1384V18.4648C144.774 18.7523 144.897 18.9371 145.143 19.0192C145.39 19.0603 145.615 18.896 145.821 18.5264ZM159.79 46.5544C158.066 46.5544 156.649 46.0205 155.54 44.9528C154.431 43.844 153.877 42.3861 153.877 40.5792C153.877 38.8133 154.431 37.1501 155.54 35.5896C156.649 33.988 158.168 32.5507 160.098 31.2776C162.029 30.0045 164.226 28.9779 166.69 28.1976C167.224 28.0333 167.49 27.6843 167.49 27.1504V21.5448C167.49 19.5736 167.182 18.1773 166.566 17.356C165.95 16.4936 165.109 16.0624 164.041 16.0624C163.014 16.0624 162.07 16.5347 161.207 17.4792C160.386 18.3827 159.79 19.9227 159.421 22.0992C159.216 23.4133 158.764 24.3784 158.066 24.9944C157.409 25.5693 156.731 25.8568 156.033 25.8568C154.883 25.8568 154.308 25.2819 154.308 24.132C154.308 22.9411 154.637 21.7707 155.294 20.6208C155.992 19.4299 156.895 18.3621 158.004 17.4176C159.113 16.432 160.324 15.6517 161.638 15.0768C162.953 14.5019 164.267 14.2144 165.581 14.2144C169.646 14.2144 171.679 16.5757 171.679 21.2984V40.148C171.679 41.8728 172.11 42.7352 172.973 42.7352C173.507 42.7352 174 42.3861 174.451 41.688C174.903 40.9488 175.129 39.7168 175.129 37.992C175.129 37.3349 175.396 37.0064 175.93 37.0064C176.422 37.0064 176.669 37.3555 176.669 38.0536C176.669 41.0515 176.135 43.228 175.067 44.5832C174.041 45.8973 172.87 46.5544 171.556 46.5544C170.57 46.5544 169.79 46.1643 169.215 45.384C168.64 44.5627 168.25 43.5976 168.045 42.4888C168.004 42.0781 167.819 41.8728 167.49 41.8728C167.203 41.8317 166.916 42.0165 166.628 42.4272C165.642 43.7824 164.636 44.8091 163.61 45.5072C162.583 46.2053 161.31 46.5544 159.79 46.5544ZM161.454 43.7208C162.521 43.7208 163.507 43.3512 164.41 42.612C165.314 41.8317 166.053 40.8051 166.628 39.532C167.203 38.2589 167.49 36.8216 167.49 35.22V30.7232C167.49 29.9429 167.059 29.7171 166.197 30.0456C163.692 30.9491 161.741 32.2016 160.345 33.8032C158.99 35.3637 158.312 37.2528 158.312 39.4704C158.312 42.304 159.359 43.7208 161.454 43.7208ZM193.691 46.5544C191.884 46.5544 190.262 45.9384 188.825 44.7064C187.428 43.4333 186.34 41.688 185.56 39.4704C184.78 37.2117 184.39 34.604 184.39 31.6472C184.39 28.1976 184.923 25.1792 185.991 22.592C187.059 19.9637 188.537 17.9104 190.426 16.432C192.315 14.9536 194.451 14.2144 196.833 14.2144C197.408 14.2144 197.983 14.276 198.558 14.3992C199.132 14.4813 199.687 14.6456 200.221 14.892C200.878 15.2205 201.206 15.0768 201.206 14.4608V6.576C201.206 5.8368 201.083 5.32346 200.837 5.036C200.631 4.74853 200.241 4.58426 199.666 4.5432L198.065 4.35839C197.613 4.27626 197.387 4.02986 197.387 3.6192C197.387 3.20853 197.613 2.96213 198.065 2.88C199.379 2.6336 200.426 2.34613 201.206 2.0176C202.028 1.68906 202.705 1.36053 203.239 1.032C203.896 0.621331 204.389 0.415998 204.718 0.415998C205.169 0.415998 205.395 0.744531 205.395 1.4016V40.148C205.395 41.8728 205.826 42.7352 206.689 42.7352C207.223 42.7352 207.715 42.3861 208.167 41.688C208.619 40.9488 208.845 39.7168 208.845 37.992C208.845 37.3349 209.112 37.0064 209.646 37.0064C210.138 37.0064 210.385 37.3555 210.385 38.0536C210.385 41.0515 209.871 43.228 208.845 44.5832C207.818 45.8973 206.648 46.5544 205.334 46.5544C204.143 46.5544 203.239 46.1643 202.623 45.384C202.007 44.5627 201.596 43.5976 201.391 42.4888C201.35 42.1603 201.206 41.996 200.96 41.996C200.714 41.9549 200.488 42.0987 200.282 42.4272C199.132 44.0288 198.085 45.1171 197.141 45.692C196.196 46.2669 195.046 46.5544 193.691 46.5544ZM195.046 43.7208C196.114 43.7208 197.1 43.3717 198.003 42.6736C198.948 41.9344 199.707 40.9488 200.282 39.7168C200.898 38.4848 201.206 37.1091 201.206 35.5896V21.7296C201.206 19.8816 200.775 18.4237 199.913 17.356C199.091 16.2883 198.003 15.7544 196.648 15.7544C194.348 15.7544 192.48 17.1096 191.042 19.82C189.646 22.4893 188.948 26.1443 188.948 30.7848C188.948 35.0147 189.482 38.2384 190.55 40.456C191.658 42.6325 193.157 43.7208 195.046 43.7208ZM220.058 46.5544C218.087 46.5544 216.321 45.8973 214.76 44.5832C213.2 43.2691 211.947 41.4211 211.003 39.0392C210.099 36.6163 209.647 33.8237 209.647 30.6616C209.647 27.4173 210.12 24.5632 211.064 22.0992C212.009 19.6352 213.302 17.7051 214.945 16.3088C216.588 14.9125 218.415 14.2144 220.427 14.2144C222.85 14.2144 224.801 15.2205 226.279 17.2328C227.799 19.204 228.559 22.4277 228.559 26.904C228.559 28.2592 228.045 28.9368 227.019 28.9368H215.315C214.493 28.9368 214.083 29.4091 214.083 30.3536C214.083 34.7067 214.719 37.9715 215.992 40.148C217.265 42.3245 218.887 43.4128 220.859 43.4128C222.419 43.4128 223.692 42.8584 224.678 41.7496C225.663 40.6408 226.464 38.7723 227.08 36.144C227.203 35.6923 227.47 35.4664 227.881 35.4664C228.374 35.4664 228.559 35.8771 228.435 36.6984C227.778 40.3533 226.731 42.92 225.294 44.3984C223.857 45.8357 222.111 46.5544 220.058 46.5544ZM215.13 27.3968H221.351C223.323 27.3968 224.308 26.3701 224.308 24.3168C224.308 21.6475 223.98 19.5531 223.323 18.0336C222.666 16.5141 221.68 15.7544 220.366 15.7544C218.764 15.7544 217.409 16.6784 216.3 18.5264C215.233 20.3744 214.534 23.0027 214.206 26.4112C214.124 27.0683 214.432 27.3968 215.13 27.3968ZM235.733 46.5544C234.789 46.5544 233.782 46.4312 232.715 46.1848C231.647 45.9795 230.785 45.7125 230.128 45.384C229.758 45.1787 229.573 44.8296 229.573 44.3368L229.388 37.4376C229.388 36.7395 229.655 36.3904 230.189 36.3904C230.641 36.3904 230.949 36.7189 231.113 37.376C231.811 40.2917 232.653 42.2835 233.639 43.3512C234.665 44.4189 235.897 44.9528 237.335 44.9528C238.526 44.9528 239.511 44.5011 240.292 43.5976C241.072 42.6531 241.462 41.3595 241.462 39.7168C241.462 38.0741 241.01 36.6163 240.107 35.3432C239.203 34.0701 237.684 32.6739 235.548 31.1544C233.413 29.7171 231.852 28.2797 230.867 26.8424C229.881 25.364 229.388 23.7624 229.388 22.0376C229.388 19.6968 230.21 17.8077 231.852 16.3704C233.495 14.9331 235.672 14.2144 238.382 14.2144C239.203 14.2144 240.004 14.3171 240.784 14.5224C241.565 14.6867 242.263 14.9741 242.879 15.3848C243.248 15.6312 243.433 15.9597 243.433 16.3704L243.556 23.1464C243.556 23.7624 243.31 24.0704 242.817 24.0704C242.53 24.0704 242.324 23.9883 242.201 23.824C242.078 23.6187 241.975 23.3723 241.893 23.0848C241.072 20.4155 240.25 18.5675 239.429 17.5408C238.608 16.4731 237.602 15.9392 236.411 15.9392C235.343 15.9392 234.46 16.3088 233.762 17.048C233.064 17.7872 232.715 18.7112 232.715 19.82C232.715 21.2573 233.146 22.5099 234.008 23.5776C234.871 24.6453 236.431 25.9595 238.69 27.52C240.743 28.9984 242.283 30.6 243.31 32.3248C244.378 34.0085 244.912 35.8565 244.912 37.8688C244.912 40.4971 244.07 42.612 242.386 44.2136C240.702 45.7741 238.485 46.5544 235.733 46.5544ZM251.171 8.732C250.309 8.732 249.57 8.424 248.954 7.808C248.379 7.192 248.091 6.41173 248.091 5.4672C248.091 4.52266 248.379 3.76293 248.954 3.188C249.57 2.572 250.309 2.264 251.171 2.264C252.034 2.264 252.752 2.572 253.327 3.188C253.902 3.76293 254.19 4.52266 254.19 5.4672C254.19 6.41173 253.902 7.192 253.327 7.808C252.752 8.424 252.034 8.732 251.171 8.732ZM245.997 46C245.381 46 245.073 45.7741 245.073 45.3224C245.073 44.9528 245.34 44.7064 245.874 44.5832L246.613 44.46C247.639 44.2957 248.296 44.0493 248.584 43.7208C248.871 43.3512 249.015 42.7352 249.015 41.8728V21.1752C249.015 20.436 248.892 19.9432 248.646 19.6968C248.44 19.4093 248.05 19.2245 247.475 19.1424L246.182 18.9576C245.648 18.9165 245.381 18.6907 245.381 18.28C245.381 17.9515 245.709 17.7256 246.366 17.6024C247.639 17.3971 248.666 17.0685 249.446 16.6168C250.227 16.1651 250.986 15.6107 251.726 14.9536C252.095 14.584 252.403 14.3992 252.65 14.3992C253.019 14.3992 253.204 14.6456 253.204 15.1384V41.8728C253.204 42.7352 253.327 43.3512 253.574 43.7208C253.82 44.0904 254.292 44.3163 254.99 44.3984L256.53 44.5832C256.982 44.6653 257.208 44.8912 257.208 45.2608C257.208 45.7536 256.9 46 256.284 46H245.997ZM266.365 59.244C263.244 59.244 260.78 58.6075 258.973 57.3344C257.166 56.1024 256.263 54.6035 256.263 52.8376C256.263 52.0984 256.365 51.4208 256.571 50.8048C256.776 50.2299 257.207 49.5523 257.864 48.772C258.563 47.9917 259.61 46.9856 261.006 45.7536C261.499 45.3019 261.745 44.8912 261.745 44.5216C261.745 44.1109 261.499 43.8029 261.006 43.5976C259.528 42.9816 258.645 42.2013 258.357 41.2568C258.07 40.2712 258.419 39.3677 259.404 38.5464L263.84 34.7272C264.332 34.3165 264.312 33.9675 263.778 33.68C262.094 32.8587 260.76 31.5856 259.774 29.8608C258.788 28.136 258.296 26.288 258.296 24.3168C258.296 22.4277 258.706 20.7235 259.528 19.204C260.349 17.6845 261.458 16.4731 262.854 15.5696C264.25 14.6661 265.811 14.2144 267.536 14.2144C268.521 14.2144 269.466 14.3787 270.369 14.7072C270.944 14.9125 271.293 14.7277 271.416 14.1528C271.786 12.5923 272.464 11.3808 273.449 10.5184C274.476 9.61493 275.482 9.1632 276.468 9.1632C277.412 9.1632 278.172 9.45066 278.747 10.0256C279.363 10.5595 279.671 11.2371 279.671 12.0584C279.671 12.7565 279.465 13.3109 279.055 13.7216C278.644 14.1323 278.131 14.3376 277.515 14.3376C276.981 14.3376 276.591 14.2349 276.344 14.0296C276.098 13.8243 275.872 13.6189 275.667 13.4136C275.461 13.2083 275.133 13.1056 274.681 13.1056C273.696 13.1056 273.08 13.6395 272.833 14.7072C272.71 15.1179 272.71 15.4669 272.833 15.7544C272.997 16.0419 273.223 16.3293 273.511 16.6168C274.496 17.5613 275.256 18.7112 275.79 20.0664C276.365 21.4216 276.652 22.9205 276.652 24.5632C276.652 26.5344 276.242 28.3003 275.42 29.8608C274.64 31.4213 273.552 32.6533 272.156 33.5568C270.8 34.4603 269.26 34.912 267.536 34.912C266.796 34.912 266.16 35.0763 265.626 35.4048C265.092 35.6923 264.558 36.1235 264.024 36.6984L262.977 37.8688C262.443 38.5259 262.279 39.1624 262.484 39.7784C262.731 40.3533 263.306 40.6408 264.209 40.6408H269.507C272.464 40.6408 274.804 41.38 276.529 42.8584C278.254 44.2957 279.116 46.2875 279.116 48.8336C279.116 50.8459 278.541 52.6323 277.392 54.1928C276.242 55.7533 274.702 56.9853 272.772 57.8888C270.883 58.7923 268.747 59.244 266.365 59.244ZM267.474 33.372C268.952 33.372 270.123 32.5712 270.985 30.9696C271.848 29.368 272.279 27.1915 272.279 24.44C272.279 21.7707 271.827 19.6352 270.924 18.0336C270.061 16.3909 268.911 15.5696 267.474 15.5696C266.037 15.5696 264.866 16.3909 263.963 18.0336C263.1 19.6352 262.669 21.7707 262.669 24.44C262.669 27.1915 263.1 29.368 263.963 30.9696C264.825 32.5712 265.996 33.372 267.474 33.372ZM267.104 57.8888C268.583 57.8888 269.938 57.5603 271.17 56.9032C272.402 56.2461 273.367 55.3221 274.065 54.1312C274.804 52.9813 275.174 51.6672 275.174 50.1888C275.174 48.3408 274.62 46.924 273.511 45.9384C272.443 44.9117 270.924 44.3984 268.952 44.3984H267.536C266.263 44.3984 265.297 44.5216 264.64 44.768C264.024 45.0144 263.429 45.4456 262.854 46.0616C261.581 47.4168 260.78 48.5051 260.452 49.3264C260.123 50.1477 259.959 50.9896 259.959 51.852C259.959 53.6589 260.575 55.1168 261.807 56.2256C263.08 57.3344 264.846 57.8888 267.104 57.8888ZM279.569 46C278.953 46 278.645 45.7741 278.645 45.3224C278.645 44.9528 278.912 44.7064 279.446 44.5832L280.185 44.46C281.047 44.2957 281.602 44.0493 281.848 43.7208C282.135 43.3512 282.279 42.7352 282.279 41.8728V21.1752C282.279 20.436 282.156 19.9432 281.91 19.6968C281.704 19.4093 281.314 19.2245 280.739 19.1424L279.446 18.9576C278.912 18.9165 278.645 18.6907 278.645 18.28C278.645 17.9515 278.973 17.7256 279.63 17.6024C280.903 17.3971 281.868 17.0685 282.526 16.6168C283.224 16.1651 283.942 15.6107 284.682 14.9536C285.051 14.584 285.359 14.3992 285.606 14.3992C285.975 14.3992 286.16 14.6456 286.16 15.1384V17.9104C286.16 18.28 286.283 18.5264 286.53 18.6496C286.817 18.7317 287.125 18.6085 287.454 18.28C289.096 16.7195 290.534 15.6517 291.766 15.0768C293.039 14.5019 294.373 14.2144 295.77 14.2144C297.618 14.2144 299.096 14.8715 300.205 16.1856C301.314 17.4587 301.868 19.3477 301.868 21.8528V41.8728C301.868 42.7352 301.991 43.3512 302.238 43.7208C302.525 44.0493 303.1 44.2752 303.962 44.3984L305.318 44.5832C305.769 44.6653 305.995 44.9117 305.995 45.3224C305.995 45.7741 305.749 46 305.256 46H294.907C294.332 46 294.045 45.7741 294.045 45.3224C294.045 44.9117 294.271 44.6653 294.722 44.5832L295.585 44.46C296.447 44.3368 297.002 44.0904 297.248 43.7208C297.535 43.3512 297.679 42.7352 297.679 41.8728V22.5304C297.679 20.5181 297.31 19.1013 296.57 18.28C295.831 17.4587 294.784 17.048 293.429 17.048C292.115 17.048 290.924 17.4381 289.856 18.2184C288.829 18.9576 288.008 19.9637 287.392 21.2368C286.776 22.4688 286.468 23.8445 286.468 25.364V41.8728C286.468 42.7352 286.591 43.3512 286.838 43.7208C287.125 44.0904 287.7 44.3163 288.562 44.3984L290.226 44.5832C290.677 44.6653 290.903 44.8912 290.903 45.2608C290.903 45.7536 290.595 46 289.979 46H279.569Z" fill="url(#paint0_linear_419_431)" fill-opacity="0.8"/>
<path d="M6.36649 8.732C5.50409 8.732 4.76489 8.424 4.14889 7.808C3.57395 7.192 3.28649 6.41173 3.28649 5.4672C3.28649 4.52266 3.57395 3.76293 4.14889 3.188C4.76489 2.572 5.50409 2.264 6.36649 2.264C7.22889 2.264 7.94755 2.572 8.52249 3.188C9.09742 3.76293 9.38489 4.52266 9.38489 5.4672C9.38489 6.41173 9.09742 7.192 8.52249 7.808C7.94755 8.424 7.22889 8.732 6.36649 8.732ZM1.19209 46C0.576086 46 0.268086 45.7741 0.268086 45.3224C0.268086 44.9528 0.535019 44.7064 1.06889 44.5832L1.80809 44.46C2.83475 44.2957 3.49182 44.0493 3.77929 43.7208C4.06675 43.3512 4.21049 42.7352 4.21049 41.8728V21.1752C4.21049 20.436 4.08729 19.9432 3.84089 19.6968C3.63555 19.4093 3.24542 19.2245 2.67049 19.1424L1.37689 18.9576C0.843019 18.9165 0.576086 18.6907 0.576086 18.28C0.576086 17.9515 0.904619 17.7256 1.56169 17.6024C2.83475 17.3971 3.86142 17.0685 4.64169 16.6168C5.42195 16.1651 6.18169 15.6107 6.92089 14.9536C7.29049 14.584 7.59849 14.3992 7.84489 14.3992C8.21449 14.3992 8.39929 14.6456 8.39929 15.1384V41.8728C8.39929 42.7352 8.52249 43.3512 8.76889 43.7208C9.01529 44.0904 9.48755 44.3163 10.1857 44.3984L11.7257 44.5832C12.1774 44.6653 12.4033 44.8912 12.4033 45.2608C12.4033 45.7536 12.0953 46 11.4793 46H1.19209ZM12.4437 46C11.8277 46 11.5197 45.7741 11.5197 45.3224C11.5197 44.9528 11.7866 44.7064 12.3205 44.5832L13.0597 44.46C13.9221 44.2957 14.4765 44.0493 14.7229 43.7208C15.0104 43.3512 15.1541 42.7352 15.1541 41.8728V21.1752C15.1541 20.436 15.0309 19.9432 14.7845 19.6968C14.5792 19.4093 14.189 19.2245 13.6141 19.1424L12.3205 18.9576C11.7866 18.9165 11.5197 18.6907 11.5197 18.28C11.5197 17.9515 11.8482 17.7256 12.5053 17.6024C13.7784 17.3971 14.7434 17.0685 15.4005 16.6168C16.0986 16.1651 16.8173 15.6107 17.5565 14.9536C17.9261 14.584 18.2341 14.3992 18.4805 14.3992C18.8501 14.3992 19.0349 14.6456 19.0349 15.1384V17.9104C19.0349 18.28 19.1581 18.5264 19.4045 18.6496C19.692 18.7317 20 18.6085 20.3285 18.28C21.9712 16.7195 23.4085 15.6517 24.6405 15.0768C25.9136 14.5019 27.2482 14.2144 28.6445 14.2144C30.4925 14.2144 31.9709 14.8715 33.0797 16.1856C34.1885 17.4587 34.7429 19.3477 34.7429 21.8528V41.8728C34.7429 42.7352 34.8661 43.3512 35.1125 43.7208C35.4 44.0493 35.9749 44.2752 36.8373 44.3984L38.1925 44.5832C38.6442 44.6653 38.8701 44.9117 38.8701 45.3224C38.8701 45.7741 38.6237 46 38.1309 46H27.7821C27.2072 46 26.9197 45.7741 26.9197 45.3224C26.9197 44.9117 27.1456 44.6653 27.5973 44.5832L28.4597 44.46C29.3221 44.3368 29.8765 44.0904 30.1229 43.7208C30.4104 43.3512 30.5541 42.7352 30.5541 41.8728V22.5304C30.5541 20.5181 30.1845 19.1013 29.4453 18.28C28.7061 17.4587 27.6589 17.048 26.3037 17.048C24.9896 17.048 23.7986 17.4381 22.7309 18.2184C21.7042 18.9576 20.8829 19.9637 20.2669 21.2368C19.6509 22.4688 19.3429 23.8445 19.3429 25.364V41.8728C19.3429 42.7352 19.4661 43.3512 19.7125 43.7208C20 44.0904 20.5749 44.3163 21.4373 44.3984L23.1005 44.5832C23.5522 44.6653 23.7781 44.8912 23.7781 45.2608C23.7781 45.7536 23.4701 46 22.8541 46H12.4437ZM55.6037 46.5544C54.577 46.5544 53.5914 46.3285 52.6469 45.8768C51.7023 45.4251 50.9221 44.7064 50.3061 43.7208C49.6901 42.7352 49.3821 41.4211 49.3821 39.7784V18.3416C49.3821 17.6024 49.2589 17.0891 49.0125 16.8016C48.8071 16.5141 48.417 16.3499 47.8421 16.3088L46.7949 16.1856C46.0967 16.1035 45.7477 15.8365 45.7477 15.3848C45.7477 14.8509 46.1378 14.584 46.9181 14.584H52.6469C53.2629 14.584 53.5709 14.892 53.5709 15.508V38.4848C53.5709 40.3739 53.9199 41.7291 54.6181 42.5504C55.3573 43.3307 56.3634 43.7208 57.6365 43.7208C58.9095 43.7208 60.0389 43.3717 61.0245 42.6736C62.0101 41.9344 62.7903 40.9693 63.3653 39.7784C63.9813 38.5464 64.2893 37.2117 64.2893 35.7744V18.3416C64.2893 17.6024 64.1661 17.0891 63.9197 16.8016C63.7143 16.5141 63.3242 16.3499 62.7493 16.3088L61.7021 16.1856C61.0039 16.1035 60.6549 15.8365 60.6549 15.3848C60.6549 14.8509 61.045 14.584 61.8253 14.584H67.5541C68.1701 14.584 68.4781 14.892 68.4781 15.508V39.4088C68.4781 40.148 68.5807 40.6613 68.7861 40.9488C69.0325 41.1952 69.4431 41.3595 70.0181 41.4416L71.3117 41.6264C71.8455 41.6675 72.1125 41.8728 72.1125 42.2424C72.1125 42.612 71.7839 42.8584 71.1269 42.9816C69.8538 43.1459 68.8271 43.4744 68.0469 43.9672C67.3077 44.46 66.6506 45.0555 66.0757 45.7536C65.7061 46.1232 65.3981 46.308 65.1517 46.308C64.7821 46.308 64.5973 46.0616 64.5973 45.5688V42.7352C64.5973 42.4067 64.4741 42.2219 64.2277 42.1808C64.0223 42.0987 63.7965 42.1808 63.5501 42.4272C62.0306 43.9467 60.6754 45.0144 59.4845 45.6304C58.3346 46.2464 57.041 46.5544 55.6037 46.5544ZM72.4267 46C71.8107 46 71.5027 45.7741 71.5027 45.3224C71.5027 44.9528 71.7696 44.7064 72.3035 44.5832L73.0427 44.46C73.9051 44.2957 74.4595 44.0493 74.7059 43.7208C74.9934 43.3512 75.1371 42.7352 75.1371 41.8728V21.1752C75.1371 20.436 75.0139 19.9432 74.7675 19.6968C74.5622 19.4093 74.172 19.2245 73.5971 19.1424L72.3035 18.9576C71.7696 18.9165 71.5027 18.6907 71.5027 18.28C71.5027 17.9515 71.8312 17.7256 72.4883 17.6024C73.7614 17.3971 74.7264 17.0685 75.3835 16.6168C76.0816 16.1651 76.8003 15.6107 77.5395 14.9536C77.9091 14.584 78.2171 14.3992 78.4635 14.3992C78.8331 14.3992 79.0179 14.6456 79.0179 15.1384V17.9104C79.0179 18.1979 79.1411 18.4237 79.3875 18.588C79.6339 18.7112 79.9008 18.6291 80.1883 18.3416C81.872 16.74 83.3299 15.6517 84.5619 15.0768C85.835 14.5019 87.108 14.2144 88.3811 14.2144C89.572 14.2144 90.6192 14.5429 91.5227 15.2C92.4672 15.816 93.1654 16.7605 93.6171 18.0336C93.7403 18.3621 93.9456 18.5675 94.2331 18.6496C94.5616 18.6907 94.8696 18.5675 95.1571 18.28C96.8408 16.7195 98.2987 15.6517 99.5307 15.0768C100.763 14.5019 102.015 14.2144 103.288 14.2144C105.013 14.2144 106.409 14.8715 107.477 16.1856C108.586 17.4587 109.14 19.3477 109.14 21.8528V41.8728C109.14 42.7352 109.264 43.3512 109.51 43.7208C109.797 44.0493 110.372 44.2752 111.235 44.3984L112.59 44.5832C113.042 44.6653 113.268 44.9117 113.268 45.3224C113.268 45.7741 113.021 46 112.528 46H101.995C101.42 46 101.132 45.7741 101.132 45.3224C101.132 44.9117 101.358 44.6653 101.81 44.5832L102.672 44.46C103.617 44.3368 104.233 44.0904 104.52 43.7208C104.808 43.3512 104.952 42.7352 104.952 41.8728V22.5304C104.952 20.5181 104.582 19.1013 103.843 18.28C103.145 17.4587 102.18 17.048 100.948 17.048C99.7155 17.048 98.5862 17.4381 97.5595 18.2184C96.5739 18.9576 95.7731 19.9637 95.1571 21.2368C94.5411 22.4688 94.2331 23.8445 94.2331 25.364V41.8728C94.2331 42.7352 94.3768 43.3512 94.6643 43.7208C94.9518 44.0493 95.5472 44.2752 96.4507 44.3984L97.8059 44.5832C98.2576 44.6653 98.4835 44.9117 98.4835 45.3224C98.4835 45.7741 98.2371 46 97.7443 46H87.2723C86.6974 46 86.4099 45.7741 86.4099 45.3224C86.4099 44.9117 86.6358 44.6653 87.0875 44.5832L87.9499 44.46C88.8123 44.3368 89.3667 44.0904 89.6131 43.7208C89.9006 43.3512 90.0443 42.7352 90.0443 41.8728V22.5304C90.0443 20.5181 89.6747 19.1013 88.9355 18.28C88.2374 17.4587 87.2723 17.048 86.0403 17.048C84.8083 17.048 83.679 17.4381 82.6523 18.2184C81.6667 18.9576 80.8659 19.9637 80.2499 21.2368C79.6339 22.4688 79.3259 23.8445 79.3259 25.364V41.8728C79.3259 42.7352 79.4491 43.3512 79.6955 43.7208C79.983 44.0904 80.5579 44.3163 81.4203 44.3984L83.0835 44.5832C83.5352 44.6653 83.7611 44.8912 83.7611 45.2608C83.7611 45.7536 83.4531 46 82.8371 46H72.4267ZM124.177 46.5544C122.493 46.5544 120.871 46.0205 119.311 44.9528C118.407 44.3368 117.586 44.5011 116.847 45.4456C116.436 45.8973 116.128 46.1848 115.923 46.308C115.717 46.4723 115.512 46.5544 115.307 46.5544C114.855 46.5544 114.691 46.2669 114.814 45.692C114.978 44.7475 115.101 43.536 115.183 42.0576C115.266 40.5792 115.307 38.608 115.307 36.144V6.576C115.307 5.8368 115.183 5.344 114.937 5.0976C114.732 4.81013 114.342 4.62533 113.767 4.5432L112.473 4.35839C112.021 4.27626 111.795 4.02986 111.795 3.6192C111.795 3.20853 112.021 2.96213 112.473 2.88C113.623 2.6336 114.588 2.34613 115.368 2.0176C116.148 1.68906 116.806 1.36053 117.339 1.032C117.996 0.621331 118.489 0.415998 118.818 0.415998C119.27 0.415998 119.495 0.744531 119.495 1.4016V16.6168C119.495 16.9453 119.619 17.1712 119.865 17.2944C120.152 17.3765 120.46 17.2533 120.789 16.9248C122.555 15.1179 124.485 14.2144 126.579 14.2144C128.468 14.2144 130.132 14.8509 131.569 16.124C133.047 17.356 134.197 19.0808 135.019 21.2984C135.881 23.516 136.312 26.1237 136.312 29.1216C136.312 32.5301 135.778 35.5485 134.711 38.1768C133.643 40.8051 132.185 42.8584 130.337 44.3368C128.53 45.8152 126.477 46.5544 124.177 46.5544ZM124.054 45.0144C126.354 45.0144 128.202 43.6592 129.598 40.9488C131.035 38.2384 131.754 34.5835 131.754 29.984C131.754 25.7541 131.138 22.5304 129.906 20.3128C128.674 18.0952 126.928 16.9864 124.67 16.9864C123.274 16.9864 122.062 17.5613 121.035 18.7112C120.009 19.8611 119.495 21.4627 119.495 23.516V39.0392C119.495 40.8872 119.906 42.3451 120.727 43.4128C121.59 44.4805 122.699 45.0144 124.054 45.0144ZM145.821 18.5264C147.504 15.6517 149.537 14.2144 151.919 14.2144C153.274 14.2144 154.28 14.6251 154.938 15.4464C155.595 16.2267 155.923 17.1096 155.923 18.0952C155.923 18.8755 155.718 19.512 155.307 20.0048C154.938 20.4976 154.342 20.744 153.521 20.744C152.864 20.744 152.371 20.6003 152.042 20.3128C151.755 19.9843 151.508 19.6147 151.303 19.204C151.139 18.7933 150.934 18.4443 150.687 18.1568C150.441 17.8283 150.03 17.664 149.455 17.664C148.716 17.664 148.018 18.1157 147.361 19.0192C146.704 19.8816 146.149 21.052 145.698 22.5304C145.287 24.0088 145.082 25.6925 145.082 27.5816V41.8728C145.082 42.7352 145.205 43.3512 145.451 43.7208C145.739 44.0904 146.314 44.3163 147.176 44.3984L148.839 44.5832C149.291 44.6653 149.517 44.8912 149.517 45.2608C149.517 45.7536 149.209 46 148.593 46H138.182C137.566 46 137.258 45.7741 137.258 45.3224C137.258 44.9528 137.525 44.7064 138.059 44.5832L138.798 44.46C139.661 44.2957 140.215 44.0493 140.462 43.7208C140.749 43.3512 140.893 42.7352 140.893 41.8728V21.1752C140.893 20.436 140.77 19.9432 140.523 19.6968C140.318 19.4093 139.928 19.2245 139.353 19.1424L138.059 18.9576C137.525 18.9165 137.258 18.6907 137.258 18.28C137.258 17.9515 137.587 17.7256 138.244 17.6024C139.517 17.3971 140.482 17.0685 141.139 16.6168C141.837 16.1651 142.556 15.6107 143.295 14.9536C143.665 14.584 143.973 14.3992 144.219 14.3992C144.589 14.3992 144.774 14.6456 144.774 15.1384V18.4648C144.774 18.7523 144.897 18.9371 145.143 19.0192C145.39 19.0603 145.615 18.896 145.821 18.5264ZM159.79 46.5544C158.066 46.5544 156.649 46.0205 155.54 44.9528C154.431 43.844 153.877 42.3861 153.877 40.5792C153.877 38.8133 154.431 37.1501 155.54 35.5896C156.649 33.988 158.168 32.5507 160.098 31.2776C162.029 30.0045 164.226 28.9779 166.69 28.1976C167.224 28.0333 167.49 27.6843 167.49 27.1504V21.5448C167.49 19.5736 167.182 18.1773 166.566 17.356C165.95 16.4936 165.109 16.0624 164.041 16.0624C163.014 16.0624 162.07 16.5347 161.207 17.4792C160.386 18.3827 159.79 19.9227 159.421 22.0992C159.216 23.4133 158.764 24.3784 158.066 24.9944C157.409 25.5693 156.731 25.8568 156.033 25.8568C154.883 25.8568 154.308 25.2819 154.308 24.132C154.308 22.9411 154.637 21.7707 155.294 20.6208C155.992 19.4299 156.895 18.3621 158.004 17.4176C159.113 16.432 160.324 15.6517 161.638 15.0768C162.953 14.5019 164.267 14.2144 165.581 14.2144C169.646 14.2144 171.679 16.5757 171.679 21.2984V40.148C171.679 41.8728 172.11 42.7352 172.973 42.7352C173.507 42.7352 174 42.3861 174.451 41.688C174.903 40.9488 175.129 39.7168 175.129 37.992C175.129 37.3349 175.396 37.0064 175.93 37.0064C176.422 37.0064 176.669 37.3555 176.669 38.0536C176.669 41.0515 176.135 43.228 175.067 44.5832C174.041 45.8973 172.87 46.5544 171.556 46.5544C170.57 46.5544 169.79 46.1643 169.215 45.384C168.64 44.5627 168.25 43.5976 168.045 42.4888C168.004 42.0781 167.819 41.8728 167.49 41.8728C167.203 41.8317 166.916 42.0165 166.628 42.4272C165.642 43.7824 164.636 44.8091 163.61 45.5072C162.583 46.2053 161.31 46.5544 159.79 46.5544ZM161.454 43.7208C162.521 43.7208 163.507 43.3512 164.41 42.612C165.314 41.8317 166.053 40.8051 166.628 39.532C167.203 38.2589 167.49 36.8216 167.49 35.22V30.7232C167.49 29.9429 167.059 29.7171 166.197 30.0456C163.692 30.9491 161.741 32.2016 160.345 33.8032C158.99 35.3637 158.312 37.2528 158.312 39.4704C158.312 42.304 159.359 43.7208 161.454 43.7208ZM193.691 46.5544C191.884 46.5544 190.262 45.9384 188.825 44.7064C187.428 43.4333 186.34 41.688 185.56 39.4704C184.78 37.2117 184.39 34.604 184.39 31.6472C184.39 28.1976 184.923 25.1792 185.991 22.592C187.059 19.9637 188.537 17.9104 190.426 16.432C192.315 14.9536 194.451 14.2144 196.833 14.2144C197.408 14.2144 197.983 14.276 198.558 14.3992C199.132 14.4813 199.687 14.6456 200.221 14.892C200.878 15.2205 201.206 15.0768 201.206 14.4608V6.576C201.206 5.8368 201.083 5.32346 200.837 5.036C200.631 4.74853 200.241 4.58426 199.666 4.5432L198.065 4.35839C197.613 4.27626 197.387 4.02986 197.387 3.6192C197.387 3.20853 197.613 2.96213 198.065 2.88C199.379 2.6336 200.426 2.34613 201.206 2.0176C202.028 1.68906 202.705 1.36053 203.239 1.032C203.896 0.621331 204.389 0.415998 204.718 0.415998C205.169 0.415998 205.395 0.744531 205.395 1.4016V40.148C205.395 41.8728 205.826 42.7352 206.689 42.7352C207.223 42.7352 207.715 42.3861 208.167 41.688C208.619 40.9488 208.845 39.7168 208.845 37.992C208.845 37.3349 209.112 37.0064 209.646 37.0064C210.138 37.0064 210.385 37.3555 210.385 38.0536C210.385 41.0515 209.871 43.228 208.845 44.5832C207.818 45.8973 206.648 46.5544 205.334 46.5544C204.143 46.5544 203.239 46.1643 202.623 45.384C202.007 44.5627 201.596 43.5976 201.391 42.4888C201.35 42.1603 201.206 41.996 200.96 41.996C200.714 41.9549 200.488 42.0987 200.282 42.4272C199.132 44.0288 198.085 45.1171 197.141 45.692C196.196 46.2669 195.046 46.5544 193.691 46.5544ZM195.046 43.7208C196.114 43.7208 197.1 43.3717 198.003 42.6736C198.948 41.9344 199.707 40.9488 200.282 39.7168C200.898 38.4848 201.206 37.1091 201.206 35.5896V21.7296C201.206 19.8816 200.775 18.4237 199.913 17.356C199.091 16.2883 198.003 15.7544 196.648 15.7544C194.348 15.7544 192.48 17.1096 191.042 19.82C189.646 22.4893 188.948 26.1443 188.948 30.7848C188.948 35.0147 189.482 38.2384 190.55 40.456C191.658 42.6325 193.157 43.7208 195.046 43.7208ZM220.058 46.5544C218.087 46.5544 216.321 45.8973 214.76 44.5832C213.2 43.2691 211.947 41.4211 211.003 39.0392C210.099 36.6163 209.647 33.8237 209.647 30.6616C209.647 27.4173 210.12 24.5632 211.064 22.0992C212.009 19.6352 213.302 17.7051 214.945 16.3088C216.588 14.9125 218.415 14.2144 220.427 14.2144C222.85 14.2144 224.801 15.2205 226.279 17.2328C227.799 19.204 228.559 22.4277 228.559 26.904C228.559 28.2592 228.045 28.9368 227.019 28.9368H215.315C214.493 28.9368 214.083 29.4091 214.083 30.3536C214.083 34.7067 214.719 37.9715 215.992 40.148C217.265 42.3245 218.887 43.4128 220.859 43.4128C222.419 43.4128 223.692 42.8584 224.678 41.7496C225.663 40.6408 226.464 38.7723 227.08 36.144C227.203 35.6923 227.47 35.4664 227.881 35.4664C228.374 35.4664 228.559 35.8771 228.435 36.6984C227.778 40.3533 226.731 42.92 225.294 44.3984C223.857 45.8357 222.111 46.5544 220.058 46.5544ZM215.13 27.3968H221.351C223.323 27.3968 224.308 26.3701 224.308 24.3168C224.308 21.6475 223.98 19.5531 223.323 18.0336C222.666 16.5141 221.68 15.7544 220.366 15.7544C218.764 15.7544 217.409 16.6784 216.3 18.5264C215.233 20.3744 214.534 23.0027 214.206 26.4112C214.124 27.0683 214.432 27.3968 215.13 27.3968ZM235.733 46.5544C234.789 46.5544 233.782 46.4312 232.715 46.1848C231.647 45.9795 230.785 45.7125 230.128 45.384C229.758 45.1787 229.573 44.8296 229.573 44.3368L229.388 37.4376C229.388 36.7395 229.655 36.3904 230.189 36.3904C230.641 36.3904 230.949 36.7189 231.113 37.376C231.811 40.2917 232.653 42.2835 233.639 43.3512C234.665 44.4189 235.897 44.9528 237.335 44.9528C238.526 44.9528 239.511 44.5011 240.292 43.5976C241.072 42.6531 241.462 41.3595 241.462 39.7168C241.462 38.0741 241.01 36.6163 240.107 35.3432C239.203 34.0701 237.684 32.6739 235.548 31.1544C233.413 29.7171 231.852 28.2797 230.867 26.8424C229.881 25.364 229.388 23.7624 229.388 22.0376C229.388 19.6968 230.21 17.8077 231.852 16.3704C233.495 14.9331 235.672 14.2144 238.382 14.2144C239.203 14.2144 240.004 14.3171 240.784 14.5224C241.565 14.6867 242.263 14.9741 242.879 15.3848C243.248 15.6312 243.433 15.9597 243.433 16.3704L243.556 23.1464C243.556 23.7624 243.31 24.0704 242.817 24.0704C242.53 24.0704 242.324 23.9883 242.201 23.824C242.078 23.6187 241.975 23.3723 241.893 23.0848C241.072 20.4155 240.25 18.5675 239.429 17.5408C238.608 16.4731 237.602 15.9392 236.411 15.9392C235.343 15.9392 234.46 16.3088 233.762 17.048C233.064 17.7872 232.715 18.7112 232.715 19.82C232.715 21.2573 233.146 22.5099 234.008 23.5776C234.871 24.6453 236.431 25.9595 238.69 27.52C240.743 28.9984 242.283 30.6 243.31 32.3248C244.378 34.0085 244.912 35.8565 244.912 37.8688C244.912 40.4971 244.07 42.612 242.386 44.2136C240.702 45.7741 238.485 46.5544 235.733 46.5544ZM251.171 8.732C250.309 8.732 249.57 8.424 248.954 7.808C248.379 7.192 248.091 6.41173 248.091 5.4672C248.091 4.52266 248.379 3.76293 248.954 3.188C249.57 2.572 250.309 2.264 251.171 2.264C252.034 2.264 252.752 2.572 253.327 3.188C253.902 3.76293 254.19 4.52266 254.19 5.4672C254.19 6.41173 253.902 7.192 253.327 7.808C252.752 8.424 252.034 8.732 251.171 8.732ZM245.997 46C245.381 46 245.073 45.7741 245.073 45.3224C245.073 44.9528 245.34 44.7064 245.874 44.5832L246.613 44.46C247.639 44.2957 248.296 44.0493 248.584 43.7208C248.871 43.3512 249.015 42.7352 249.015 41.8728V21.1752C249.015 20.436 248.892 19.9432 248.646 19.6968C248.44 19.4093 248.05 19.2245 247.475 19.1424L246.182 18.9576C245.648 18.9165 245.381 18.6907 245.381 18.28C245.381 17.9515 245.709 17.7256 246.366 17.6024C247.639 17.3971 248.666 17.0685 249.446 16.6168C250.227 16.1651 250.986 15.6107 251.726 14.9536C252.095 14.584 252.403 14.3992 252.65 14.3992C253.019 14.3992 253.204 14.6456 253.204 15.1384V41.8728C253.204 42.7352 253.327 43.3512 253.574 43.7208C253.82 44.0904 254.292 44.3163 254.99 44.3984L256.53 44.5832C256.982 44.6653 257.208 44.8912 257.208 45.2608C257.208 45.7536 256.9 46 256.284 46H245.997ZM266.365 59.244C263.244 59.244 260.78 58.6075 258.973 57.3344C257.166 56.1024 256.263 54.6035 256.263 52.8376C256.263 52.0984 256.365 51.4208 256.571 50.8048C256.776 50.2299 257.207 49.5523 257.864 48.772C258.563 47.9917 259.61 46.9856 261.006 45.7536C261.499 45.3019 261.745 44.8912 261.745 44.5216C261.745 44.1109 261.499 43.8029 261.006 43.5976C259.528 42.9816 258.645 42.2013 258.357 41.2568C258.07 40.2712 258.419 39.3677 259.404 38.5464L263.84 34.7272C264.332 34.3165 264.312 33.9675 263.778 33.68C262.094 32.8587 260.76 31.5856 259.774 29.8608C258.788 28.136 258.296 26.288 258.296 24.3168C258.296 22.4277 258.706 20.7235 259.528 19.204C260.349 17.6845 261.458 16.4731 262.854 15.5696C264.25 14.6661 265.811 14.2144 267.536 14.2144C268.521 14.2144 269.466 14.3787 270.369 14.7072C270.944 14.9125 271.293 14.7277 271.416 14.1528C271.786 12.5923 272.464 11.3808 273.449 10.5184C274.476 9.61493 275.482 9.1632 276.468 9.1632C277.412 9.1632 278.172 9.45066 278.747 10.0256C279.363 10.5595 279.671 11.2371 279.671 12.0584C279.671 12.7565 279.465 13.3109 279.055 13.7216C278.644 14.1323 278.131 14.3376 277.515 14.3376C276.981 14.3376 276.591 14.2349 276.344 14.0296C276.098 13.8243 275.872 13.6189 275.667 13.4136C275.461 13.2083 275.133 13.1056 274.681 13.1056C273.696 13.1056 273.08 13.6395 272.833 14.7072C272.71 15.1179 272.71 15.4669 272.833 15.7544C272.997 16.0419 273.223 16.3293 273.511 16.6168C274.496 17.5613 275.256 18.7112 275.79 20.0664C276.365 21.4216 276.652 22.9205 276.652 24.5632C276.652 26.5344 276.242 28.3003 275.42 29.8608C274.64 31.4213 273.552 32.6533 272.156 33.5568C270.8 34.4603 269.26 34.912 267.536 34.912C266.796 34.912 266.16 35.0763 265.626 35.4048C265.092 35.6923 264.558 36.1235 264.024 36.6984L262.977 37.8688C262.443 38.5259 262.279 39.1624 262.484 39.7784C262.731 40.3533 263.306 40.6408 264.209 40.6408H269.507C272.464 40.6408 274.804 41.38 276.529 42.8584C278.254 44.2957 279.116 46.2875 279.116 48.8336C279.116 50.8459 278.541 52.6323 277.392 54.1928C276.242 55.7533 274.702 56.9853 272.772 57.8888C270.883 58.7923 268.747 59.244 266.365 59.244ZM267.474 33.372C268.952 33.372 270.123 32.5712 270.985 30.9696C271.848 29.368 272.279 27.1915 272.279 24.44C272.279 21.7707 271.827 19.6352 270.924 18.0336C270.061 16.3909 268.911 15.5696 267.474 15.5696C266.037 15.5696 264.866 16.3909 263.963 18.0336C263.1 19.6352 262.669 21.7707 262.669 24.44C262.669 27.1915 263.1 29.368 263.963 30.9696C264.825 32.5712 265.996 33.372 267.474 33.372ZM267.104 57.8888C268.583 57.8888 269.938 57.5603 271.17 56.9032C272.402 56.2461 273.367 55.3221 274.065 54.1312C274.804 52.9813 275.174 51.6672 275.174 50.1888C275.174 48.3408 274.62 46.924 273.511 45.9384C272.443 44.9117 270.924 44.3984 268.952 44.3984H267.536C266.263 44.3984 265.297 44.5216 264.64 44.768C264.024 45.0144 263.429 45.4456 262.854 46.0616C261.581 47.4168 260.78 48.5051 260.452 49.3264C260.123 50.1477 259.959 50.9896 259.959 51.852C259.959 53.6589 260.575 55.1168 261.807 56.2256C263.08 57.3344 264.846 57.8888 267.104 57.8888ZM279.569 46C278.953 46 278.645 45.7741 278.645 45.3224C278.645 44.9528 278.912 44.7064 279.446 44.5832L280.185 44.46C281.047 44.2957 281.602 44.0493 281.848 43.7208C282.135 43.3512 282.279 42.7352 282.279 41.8728V21.1752C282.279 20.436 282.156 19.9432 281.91 19.6968C281.704 19.4093 281.314 19.2245 280.739 19.1424L279.446 18.9576C278.912 18.9165 278.645 18.6907 278.645 18.28C278.645 17.9515 278.973 17.7256 279.63 17.6024C280.903 17.3971 281.868 17.0685 282.526 16.6168C283.224 16.1651 283.942 15.6107 284.682 14.9536C285.051 14.584 285.359 14.3992 285.606 14.3992C285.975 14.3992 286.16 14.6456 286.16 15.1384V17.9104C286.16 18.28 286.283 18.5264 286.53 18.6496C286.817 18.7317 287.125 18.6085 287.454 18.28C289.096 16.7195 290.534 15.6517 291.766 15.0768C293.039 14.5019 294.373 14.2144 295.77 14.2144C297.618 14.2144 299.096 14.8715 300.205 16.1856C301.314 17.4587 301.868 19.3477 301.868 21.8528V41.8728C301.868 42.7352 301.991 43.3512 302.238 43.7208C302.525 44.0493 303.1 44.2752 303.962 44.3984L305.318 44.5832C305.769 44.6653 305.995 44.9117 305.995 45.3224C305.995 45.7741 305.749 46 305.256 46H294.907C294.332 46 294.045 45.7741 294.045 45.3224C294.045 44.9117 294.271 44.6653 294.722 44.5832L295.585 44.46C296.447 44.3368 297.002 44.0904 297.248 43.7208C297.535 43.3512 297.679 42.7352 297.679 41.8728V22.5304C297.679 20.5181 297.31 19.1013 296.57 18.28C295.831 17.4587 294.784 17.048 293.429 17.048C292.115 17.048 290.924 17.4381 289.856 18.2184C288.829 18.9576 288.008 19.9637 287.392 21.2368C286.776 22.4688 286.468 23.8445 286.468 25.364V41.8728C286.468 42.7352 286.591 43.3512 286.838 43.7208C287.125 44.0904 287.7 44.3163 288.562 44.3984L290.226 44.5832C290.677 44.6653 290.903 44.8912 290.903 45.2608C290.903 45.7536 290.595 46 289.979 46H279.569Z" fill="url(#paint1_radial_419_431)" fill-opacity="0.4"/>
<path d="M6.36649 8.732C5.50409 8.732 4.76489 8.424 4.14889 7.808C3.57395 7.192 3.28649 6.41173 3.28649 5.4672C3.28649 4.52266 3.57395 3.76293 4.14889 3.188C4.76489 2.572 5.50409 2.264 6.36649 2.264C7.22889 2.264 7.94755 2.572 8.52249 3.188C9.09742 3.76293 9.38489 4.52266 9.38489 5.4672C9.38489 6.41173 9.09742 7.192 8.52249 7.808C7.94755 8.424 7.22889 8.732 6.36649 8.732ZM1.19209 46C0.576086 46 0.268086 45.7741 0.268086 45.3224C0.268086 44.9528 0.535019 44.7064 1.06889 44.5832L1.80809 44.46C2.83475 44.2957 3.49182 44.0493 3.77929 43.7208C4.06675 43.3512 4.21049 42.7352 4.21049 41.8728V21.1752C4.21049 20.436 4.08729 19.9432 3.84089 19.6968C3.63555 19.4093 3.24542 19.2245 2.67049 19.1424L1.37689 18.9576C0.843019 18.9165 0.576086 18.6907 0.576086 18.28C0.576086 17.9515 0.904619 17.7256 1.56169 17.6024C2.83475 17.3971 3.86142 17.0685 4.64169 16.6168C5.42195 16.1651 6.18169 15.6107 6.92089 14.9536C7.29049 14.584 7.59849 14.3992 7.84489 14.3992C8.21449 14.3992 8.39929 14.6456 8.39929 15.1384V41.8728C8.39929 42.7352 8.52249 43.3512 8.76889 43.7208C9.01529 44.0904 9.48755 44.3163 10.1857 44.3984L11.7257 44.5832C12.1774 44.6653 12.4033 44.8912 12.4033 45.2608C12.4033 45.7536 12.0953 46 11.4793 46H1.19209ZM12.4437 46C11.8277 46 11.5197 45.7741 11.5197 45.3224C11.5197 44.9528 11.7866 44.7064 12.3205 44.5832L13.0597 44.46C13.9221 44.2957 14.4765 44.0493 14.7229 43.7208C15.0104 43.3512 15.1541 42.7352 15.1541 41.8728V21.1752C15.1541 20.436 15.0309 19.9432 14.7845 19.6968C14.5792 19.4093 14.189 19.2245 13.6141 19.1424L12.3205 18.9576C11.7866 18.9165 11.5197 18.6907 11.5197 18.28C11.5197 17.9515 11.8482 17.7256 12.5053 17.6024C13.7784 17.3971 14.7434 17.0685 15.4005 16.6168C16.0986 16.1651 16.8173 15.6107 17.5565 14.9536C17.9261 14.584 18.2341 14.3992 18.4805 14.3992C18.8501 14.3992 19.0349 14.6456 19.0349 15.1384V17.9104C19.0349 18.28 19.1581 18.5264 19.4045 18.6496C19.692 18.7317 20 18.6085 20.3285 18.28C21.9712 16.7195 23.4085 15.6517 24.6405 15.0768C25.9136 14.5019 27.2482 14.2144 28.6445 14.2144C30.4925 14.2144 31.9709 14.8715 33.0797 16.1856C34.1885 17.4587 34.7429 19.3477 34.7429 21.8528V41.8728C34.7429 42.7352 34.8661 43.3512 35.1125 43.7208C35.4 44.0493 35.9749 44.2752 36.8373 44.3984L38.1925 44.5832C38.6442 44.6653 38.8701 44.9117 38.8701 45.3224C38.8701 45.7741 38.6237 46 38.1309 46H27.7821C27.2072 46 26.9197 45.7741 26.9197 45.3224C26.9197 44.9117 27.1456 44.6653 27.5973 44.5832L28.4597 44.46C29.3221 44.3368 29.8765 44.0904 30.1229 43.7208C30.4104 43.3512 30.5541 42.7352 30.5541 41.8728V22.5304C30.5541 20.5181 30.1845 19.1013 29.4453 18.28C28.7061 17.4587 27.6589 17.048 26.3037 17.048C24.9896 17.048 23.7986 17.4381 22.7309 18.2184C21.7042 18.9576 20.8829 19.9637 20.2669 21.2368C19.6509 22.4688 19.3429 23.8445 19.3429 25.364V41.8728C19.3429 42.7352 19.4661 43.3512 19.7125 43.7208C20 44.0904 20.5749 44.3163 21.4373 44.3984L23.1005 44.5832C23.5522 44.6653 23.7781 44.8912 23.7781 45.2608C23.7781 45.7536 23.4701 46 22.8541 46H12.4437ZM55.6037 46.5544C54.577 46.5544 53.5914 46.3285 52.6469 45.8768C51.7023 45.4251 50.9221 44.7064 50.3061 43.7208C49.6901 42.7352 49.3821 41.4211 49.3821 39.7784V18.3416C49.3821 17.6024 49.2589 17.0891 49.0125 16.8016C48.8071 16.5141 48.417 16.3499 47.8421 16.3088L46.7949 16.1856C46.0967 16.1035 45.7477 15.8365 45.7477 15.3848C45.7477 14.8509 46.1378 14.584 46.9181 14.584H52.6469C53.2629 14.584 53.5709 14.892 53.5709 15.508V38.4848C53.5709 40.3739 53.9199 41.7291 54.6181 42.5504C55.3573 43.3307 56.3634 43.7208 57.6365 43.7208C58.9095 43.7208 60.0389 43.3717 61.0245 42.6736C62.0101 41.9344 62.7903 40.9693 63.3653 39.7784C63.9813 38.5464 64.2893 37.2117 64.2893 35.7744V18.3416C64.2893 17.6024 64.1661 17.0891 63.9197 16.8016C63.7143 16.5141 63.3242 16.3499 62.7493 16.3088L61.7021 16.1856C61.0039 16.1035 60.6549 15.8365 60.6549 15.3848C60.6549 14.8509 61.045 14.584 61.8253 14.584H67.5541C68.1701 14.584 68.4781 14.892 68.4781 15.508V39.4088C68.4781 40.148 68.5807 40.6613 68.7861 40.9488C69.0325 41.1952 69.4431 41.3595 70.0181 41.4416L71.3117 41.6264C71.8455 41.6675 72.1125 41.8728 72.1125 42.2424C72.1125 42.612 71.7839 42.8584 71.1269 42.9816C69.8538 43.1459 68.8271 43.4744 68.0469 43.9672C67.3077 44.46 66.6506 45.0555 66.0757 45.7536C65.7061 46.1232 65.3981 46.308 65.1517 46.308C64.7821 46.308 64.5973 46.0616 64.5973 45.5688V42.7352C64.5973 42.4067 64.4741 42.2219 64.2277 42.1808C64.0223 42.0987 63.7965 42.1808 63.5501 42.4272C62.0306 43.9467 60.6754 45.0144 59.4845 45.6304C58.3346 46.2464 57.041 46.5544 55.6037 46.5544ZM72.4267 46C71.8107 46 71.5027 45.7741 71.5027 45.3224C71.5027 44.9528 71.7696 44.7064 72.3035 44.5832L73.0427 44.46C73.9051 44.2957 74.4595 44.0493 74.7059 43.7208C74.9934 43.3512 75.1371 42.7352 75.1371 41.8728V21.1752C75.1371 20.436 75.0139 19.9432 74.7675 19.6968C74.5622 19.4093 74.172 19.2245 73.5971 19.1424L72.3035 18.9576C71.7696 18.9165 71.5027 18.6907 71.5027 18.28C71.5027 17.9515 71.8312 17.7256 72.4883 17.6024C73.7614 17.3971 74.7264 17.0685 75.3835 16.6168C76.0816 16.1651 76.8003 15.6107 77.5395 14.9536C77.9091 14.584 78.2171 14.3992 78.4635 14.3992C78.8331 14.3992 79.0179 14.6456 79.0179 15.1384V17.9104C79.0179 18.1979 79.1411 18.4237 79.3875 18.588C79.6339 18.7112 79.9008 18.6291 80.1883 18.3416C81.872 16.74 83.3299 15.6517 84.5619 15.0768C85.835 14.5019 87.108 14.2144 88.3811 14.2144C89.572 14.2144 90.6192 14.5429 91.5227 15.2C92.4672 15.816 93.1654 16.7605 93.6171 18.0336C93.7403 18.3621 93.9456 18.5675 94.2331 18.6496C94.5616 18.6907 94.8696 18.5675 95.1571 18.28C96.8408 16.7195 98.2987 15.6517 99.5307 15.0768C100.763 14.5019 102.015 14.2144 103.288 14.2144C105.013 14.2144 106.409 14.8715 107.477 16.1856C108.586 17.4587 109.14 19.3477 109.14 21.8528V41.8728C109.14 42.7352 109.264 43.3512 109.51 43.7208C109.797 44.0493 110.372 44.2752 111.235 44.3984L112.59 44.5832C113.042 44.6653 113.268 44.9117 113.268 45.3224C113.268 45.7741 113.021 46 112.528 46H101.995C101.42 46 101.132 45.7741 101.132 45.3224C101.132 44.9117 101.358 44.6653 101.81 44.5832L102.672 44.46C103.617 44.3368 104.233 44.0904 104.52 43.7208C104.808 43.3512 104.952 42.7352 104.952 41.8728V22.5304C104.952 20.5181 104.582 19.1013 103.843 18.28C103.145 17.4587 102.18 17.048 100.948 17.048C99.7155 17.048 98.5862 17.4381 97.5595 18.2184C96.5739 18.9576 95.7731 19.9637 95.1571 21.2368C94.5411 22.4688 94.2331 23.8445 94.2331 25.364V41.8728C94.2331 42.7352 94.3768 43.3512 94.6643 43.7208C94.9518 44.0493 95.5472 44.2752 96.4507 44.3984L97.8059 44.5832C98.2576 44.6653 98.4835 44.9117 98.4835 45.3224C98.4835 45.7741 98.2371 46 97.7443 46H87.2723C86.6974 46 86.4099 45.7741 86.4099 45.3224C86.4099 44.9117 86.6358 44.6653 87.0875 44.5832L87.9499 44.46C88.8123 44.3368 89.3667 44.0904 89.6131 43.7208C89.9006 43.3512 90.0443 42.7352 90.0443 41.8728V22.5304C90.0443 20.5181 89.6747 19.1013 88.9355 18.28C88.2374 17.4587 87.2723 17.048 86.0403 17.048C84.8083 17.048 83.679 17.4381 82.6523 18.2184C81.6667 18.9576 80.8659 19.9637 80.2499 21.2368C79.6339 22.4688 79.3259 23.8445 79.3259 25.364V41.8728C79.3259 42.7352 79.4491 43.3512 79.6955 43.7208C79.983 44.0904 80.5579 44.3163 81.4203 44.3984L83.0835 44.5832C83.5352 44.6653 83.7611 44.8912 83.7611 45.2608C83.7611 45.7536 83.4531 46 82.8371 46H72.4267ZM124.177 46.5544C122.493 46.5544 120.871 46.0205 119.311 44.9528C118.407 44.3368 117.586 44.5011 116.847 45.4456C116.436 45.8973 116.128 46.1848 115.923 46.308C115.717 46.4723 115.512 46.5544 115.307 46.5544C114.855 46.5544 114.691 46.2669 114.814 45.692C114.978 44.7475 115.101 43.536 115.183 42.0576C115.266 40.5792 115.307 38.608 115.307 36.144V6.576C115.307 5.8368 115.183 5.344 114.937 5.0976C114.732 4.81013 114.342 4.62533 113.767 4.5432L112.473 4.35839C112.021 4.27626 111.795 4.02986 111.795 3.6192C111.795 3.20853 112.021 2.96213 112.473 2.88C113.623 2.6336 114.588 2.34613 115.368 2.0176C116.148 1.68906 116.806 1.36053 117.339 1.032C117.996 0.621331 118.489 0.415998 118.818 0.415998C119.27 0.415998 119.495 0.744531 119.495 1.4016V16.6168C119.495 16.9453 119.619 17.1712 119.865 17.2944C120.152 17.3765 120.46 17.2533 120.789 16.9248C122.555 15.1179 124.485 14.2144 126.579 14.2144C128.468 14.2144 130.132 14.8509 131.569 16.124C133.047 17.356 134.197 19.0808 135.019 21.2984C135.881 23.516 136.312 26.1237 136.312 29.1216C136.312 32.5301 135.778 35.5485 134.711 38.1768C133.643 40.8051 132.185 42.8584 130.337 44.3368C128.53 45.8152 126.477 46.5544 124.177 46.5544ZM124.054 45.0144C126.354 45.0144 128.202 43.6592 129.598 40.9488C131.035 38.2384 131.754 34.5835 131.754 29.984C131.754 25.7541 131.138 22.5304 129.906 20.3128C128.674 18.0952 126.928 16.9864 124.67 16.9864C123.274 16.9864 122.062 17.5613 121.035 18.7112C120.009 19.8611 119.495 21.4627 119.495 23.516V39.0392C119.495 40.8872 119.906 42.3451 120.727 43.4128C121.59 44.4805 122.699 45.0144 124.054 45.0144ZM145.821 18.5264C147.504 15.6517 149.537 14.2144 151.919 14.2144C153.274 14.2144 154.28 14.6251 154.938 15.4464C155.595 16.2267 155.923 17.1096 155.923 18.0952C155.923 18.8755 155.718 19.512 155.307 20.0048C154.938 20.4976 154.342 20.744 153.521 20.744C152.864 20.744 152.371 20.6003 152.042 20.3128C151.755 19.9843 151.508 19.6147 151.303 19.204C151.139 18.7933 150.934 18.4443 150.687 18.1568C150.441 17.8283 150.03 17.664 149.455 17.664C148.716 17.664 148.018 18.1157 147.361 19.0192C146.704 19.8816 146.149 21.052 145.698 22.5304C145.287 24.0088 145.082 25.6925 145.082 27.5816V41.8728C145.082 42.7352 145.205 43.3512 145.451 43.7208C145.739 44.0904 146.314 44.3163 147.176 44.3984L148.839 44.5832C149.291 44.6653 149.517 44.8912 149.517 45.2608C149.517 45.7536 149.209 46 148.593 46H138.182C137.566 46 137.258 45.7741 137.258 45.3224C137.258 44.9528 137.525 44.7064 138.059 44.5832L138.798 44.46C139.661 44.2957 140.215 44.0493 140.462 43.7208C140.749 43.3512 140.893 42.7352 140.893 41.8728V21.1752C140.893 20.436 140.77 19.9432 140.523 19.6968C140.318 19.4093 139.928 19.2245 139.353 19.1424L138.059 18.9576C137.525 18.9165 137.258 18.6907 137.258 18.28C137.258 17.9515 137.587 17.7256 138.244 17.6024C139.517 17.3971 140.482 17.0685 141.139 16.6168C141.837 16.1651 142.556 15.6107 143.295 14.9536C143.665 14.584 143.973 14.3992 144.219 14.3992C144.589 14.3992 144.774 14.6456 144.774 15.1384V18.4648C144.774 18.7523 144.897 18.9371 145.143 19.0192C145.39 19.0603 145.615 18.896 145.821 18.5264ZM159.79 46.5544C158.066 46.5544 156.649 46.0205 155.54 44.9528C154.431 43.844 153.877 42.3861 153.877 40.5792C153.877 38.8133 154.431 37.1501 155.54 35.5896C156.649 33.988 158.168 32.5507 160.098 31.2776C162.029 30.0045 164.226 28.9779 166.69 28.1976C167.224 28.0333 167.49 27.6843 167.49 27.1504V21.5448C167.49 19.5736 167.182 18.1773 166.566 17.356C165.95 16.4936 165.109 16.0624 164.041 16.0624C163.014 16.0624 162.07 16.5347 161.207 17.4792C160.386 18.3827 159.79 19.9227 159.421 22.0992C159.216 23.4133 158.764 24.3784 158.066 24.9944C157.409 25.5693 156.731 25.8568 156.033 25.8568C154.883 25.8568 154.308 25.2819 154.308 24.132C154.308 22.9411 154.637 21.7707 155.294 20.6208C155.992 19.4299 156.895 18.3621 158.004 17.4176C159.113 16.432 160.324 15.6517 161.638 15.0768C162.953 14.5019 164.267 14.2144 165.581 14.2144C169.646 14.2144 171.679 16.5757 171.679 21.2984V40.148C171.679 41.8728 172.11 42.7352 172.973 42.7352C173.507 42.7352 174 42.3861 174.451 41.688C174.903 40.9488 175.129 39.7168 175.129 37.992C175.129 37.3349 175.396 37.0064 175.93 37.0064C176.422 37.0064 176.669 37.3555 176.669 38.0536C176.669 41.0515 176.135 43.228 175.067 44.5832C174.041 45.8973 172.87 46.5544 171.556 46.5544C170.57 46.5544 169.79 46.1643 169.215 45.384C168.64 44.5627 168.25 43.5976 168.045 42.4888C168.004 42.0781 167.819 41.8728 167.49 41.8728C167.203 41.8317 166.916 42.0165 166.628 42.4272C165.642 43.7824 164.636 44.8091 163.61 45.5072C162.583 46.2053 161.31 46.5544 159.79 46.5544ZM161.454 43.7208C162.521 43.7208 163.507 43.3512 164.41 42.612C165.314 41.8317 166.053 40.8051 166.628 39.532C167.203 38.2589 167.49 36.8216 167.49 35.22V30.7232C167.49 29.9429 167.059 29.7171 166.197 30.0456C163.692 30.9491 161.741 32.2016 160.345 33.8032C158.99 35.3637 158.312 37.2528 158.312 39.4704C158.312 42.304 159.359 43.7208 161.454 43.7208ZM193.691 46.5544C191.884 46.5544 190.262 45.9384 188.825 44.7064C187.428 43.4333 186.34 41.688 185.56 39.4704C184.78 37.2117 184.39 34.604 184.39 31.6472C184.39 28.1976 184.923 25.1792 185.991 22.592C187.059 19.9637 188.537 17.9104 190.426 16.432C192.315 14.9536 194.451 14.2144 196.833 14.2144C197.408 14.2144 197.983 14.276 198.558 14.3992C199.132 14.4813 199.687 14.6456 200.221 14.892C200.878 15.2205 201.206 15.0768 201.206 14.4608V6.576C201.206 5.8368 201.083 5.32346 200.837 5.036C200.631 4.74853 200.241 4.58426 199.666 4.5432L198.065 4.35839C197.613 4.27626 197.387 4.02986 197.387 3.6192C197.387 3.20853 197.613 2.96213 198.065 2.88C199.379 2.6336 200.426 2.34613 201.206 2.0176C202.028 1.68906 202.705 1.36053 203.239 1.032C203.896 0.621331 204.389 0.415998 204.718 0.415998C205.169 0.415998 205.395 0.744531 205.395 1.4016V40.148C205.395 41.8728 205.826 42.7352 206.689 42.7352C207.223 42.7352 207.715 42.3861 208.167 41.688C208.619 40.9488 208.845 39.7168 208.845 37.992C208.845 37.3349 209.112 37.0064 209.646 37.0064C210.138 37.0064 210.385 37.3555 210.385 38.0536C210.385 41.0515 209.871 43.228 208.845 44.5832C207.818 45.8973 206.648 46.5544 205.334 46.5544C204.143 46.5544 203.239 46.1643 202.623 45.384C202.007 44.5627 201.596 43.5976 201.391 42.4888C201.35 42.1603 201.206 41.996 200.96 41.996C200.714 41.9549 200.488 42.0987 200.282 42.4272C199.132 44.0288 198.085 45.1171 197.141 45.692C196.196 46.2669 195.046 46.5544 193.691 46.5544ZM195.046 43.7208C196.114 43.7208 197.1 43.3717 198.003 42.6736C198.948 41.9344 199.707 40.9488 200.282 39.7168C200.898 38.4848 201.206 37.1091 201.206 35.5896V21.7296C201.206 19.8816 200.775 18.4237 199.913 17.356C199.091 16.2883 198.003 15.7544 196.648 15.7544C194.348 15.7544 192.48 17.1096 191.042 19.82C189.646 22.4893 188.948 26.1443 188.948 30.7848C188.948 35.0147 189.482 38.2384 190.55 40.456C191.658 42.6325 193.157 43.7208 195.046 43.7208ZM220.058 46.5544C218.087 46.5544 216.321 45.8973 214.76 44.5832C213.2 43.2691 211.947 41.4211 211.003 39.0392C210.099 36.6163 209.647 33.8237 209.647 30.6616C209.647 27.4173 210.12 24.5632 211.064 22.0992C212.009 19.6352 213.302 17.7051 214.945 16.3088C216.588 14.9125 218.415 14.2144 220.427 14.2144C222.85 14.2144 224.801 15.2205 226.279 17.2328C227.799 19.204 228.559 22.4277 228.559 26.904C228.559 28.2592 228.045 28.9368 227.019 28.9368H215.315C214.493 28.9368 214.083 29.4091 214.083 30.3536C214.083 34.7067 214.719 37.9715 215.992 40.148C217.265 42.3245 218.887 43.4128 220.859 43.4128C222.419 43.4128 223.692 42.8584 224.678 41.7496C225.663 40.6408 226.464 38.7723 227.08 36.144C227.203 35.6923 227.47 35.4664 227.881 35.4664C228.374 35.4664 228.559 35.8771 228.435 36.6984C227.778 40.3533 226.731 42.92 225.294 44.3984C223.857 45.8357 222.111 46.5544 220.058 46.5544ZM215.13 27.3968H221.351C223.323 27.3968 224.308 26.3701 224.308 24.3168C224.308 21.6475 223.98 19.5531 223.323 18.0336C222.666 16.5141 221.68 15.7544 220.366 15.7544C218.764 15.7544 217.409 16.6784 216.3 18.5264C215.233 20.3744 214.534 23.0027 214.206 26.4112C214.124 27.0683 214.432 27.3968 215.13 27.3968ZM235.733 46.5544C234.789 46.5544 233.782 46.4312 232.715 46.1848C231.647 45.9795 230.785 45.7125 230.128 45.384C229.758 45.1787 229.573 44.8296 229.573 44.3368L229.388 37.4376C229.388 36.7395 229.655 36.3904 230.189 36.3904C230.641 36.3904 230.949 36.7189 231.113 37.376C231.811 40.2917 232.653 42.2835 233.639 43.3512C234.665 44.4189 235.897 44.9528 237.335 44.9528C238.526 44.9528 239.511 44.5011 240.292 43.5976C241.072 42.6531 241.462 41.3595 241.462 39.7168C241.462 38.0741 241.01 36.6163 240.107 35.3432C239.203 34.0701 237.684 32.6739 235.548 31.1544C233.413 29.7171 231.852 28.2797 230.867 26.8424C229.881 25.364 229.388 23.7624 229.388 22.0376C229.388 19.6968 230.21 17.8077 231.852 16.3704C233.495 14.9331 235.672 14.2144 238.382 14.2144C239.203 14.2144 240.004 14.3171 240.784 14.5224C241.565 14.6867 242.263 14.9741 242.879 15.3848C243.248 15.6312 243.433 15.9597 243.433 16.3704L243.556 23.1464C243.556 23.7624 243.31 24.0704 242.817 24.0704C242.53 24.0704 242.324 23.9883 242.201 23.824C242.078 23.6187 241.975 23.3723 241.893 23.0848C241.072 20.4155 240.25 18.5675 239.429 17.5408C238.608 16.4731 237.602 15.9392 236.411 15.9392C235.343 15.9392 234.46 16.3088 233.762 17.048C233.064 17.7872 232.715 18.7112 232.715 19.82C232.715 21.2573 233.146 22.5099 234.008 23.5776C234.871 24.6453 236.431 25.9595 238.69 27.52C240.743 28.9984 242.283 30.6 243.31 32.3248C244.378 34.0085 244.912 35.8565 244.912 37.8688C244.912 40.4971 244.07 42.612 242.386 44.2136C240.702 45.7741 238.485 46.5544 235.733 46.5544ZM251.171 8.732C250.309 8.732 249.57 8.424 248.954 7.808C248.379 7.192 248.091 6.41173 248.091 5.4672C248.091 4.52266 248.379 3.76293 248.954 3.188C249.57 2.572 250.309 2.264 251.171 2.264C252.034 2.264 252.752 2.572 253.327 3.188C253.902 3.76293 254.19 4.52266 254.19 5.4672C254.19 6.41173 253.902 7.192 253.327 7.808C252.752 8.424 252.034 8.732 251.171 8.732ZM245.997 46C245.381 46 245.073 45.7741 245.073 45.3224C245.073 44.9528 245.34 44.7064 245.874 44.5832L246.613 44.46C247.639 44.2957 248.296 44.0493 248.584 43.7208C248.871 43.3512 249.015 42.7352 249.015 41.8728V21.1752C249.015 20.436 248.892 19.9432 248.646 19.6968C248.44 19.4093 248.05 19.2245 247.475 19.1424L246.182 18.9576C245.648 18.9165 245.381 18.6907 245.381 18.28C245.381 17.9515 245.709 17.7256 246.366 17.6024C247.639 17.3971 248.666 17.0685 249.446 16.6168C250.227 16.1651 250.986 15.6107 251.726 14.9536C252.095 14.584 252.403 14.3992 252.65 14.3992C253.019 14.3992 253.204 14.6456 253.204 15.1384V41.8728C253.204 42.7352 253.327 43.3512 253.574 43.7208C253.82 44.0904 254.292 44.3163 254.99 44.3984L256.53 44.5832C256.982 44.6653 257.208 44.8912 257.208 45.2608C257.208 45.7536 256.9 46 256.284 46H245.997ZM266.365 59.244C263.244 59.244 260.78 58.6075 258.973 57.3344C257.166 56.1024 256.263 54.6035 256.263 52.8376C256.263 52.0984 256.365 51.4208 256.571 50.8048C256.776 50.2299 257.207 49.5523 257.864 48.772C258.563 47.9917 259.61 46.9856 261.006 45.7536C261.499 45.3019 261.745 44.8912 261.745 44.5216C261.745 44.1109 261.499 43.8029 261.006 43.5976C259.528 42.9816 258.645 42.2013 258.357 41.2568C258.07 40.2712 258.419 39.3677 259.404 38.5464L263.84 34.7272C264.332 34.3165 264.312 33.9675 263.778 33.68C262.094 32.8587 260.76 31.5856 259.774 29.8608C258.788 28.136 258.296 26.288 258.296 24.3168C258.296 22.4277 258.706 20.7235 259.528 19.204C260.349 17.6845 261.458 16.4731 262.854 15.5696C264.25 14.6661 265.811 14.2144 267.536 14.2144C268.521 14.2144 269.466 14.3787 270.369 14.7072C270.944 14.9125 271.293 14.7277 271.416 14.1528C271.786 12.5923 272.464 11.3808 273.449 10.5184C274.476 9.61493 275.482 9.1632 276.468 9.1632C277.412 9.1632 278.172 9.45066 278.747 10.0256C279.363 10.5595 279.671 11.2371 279.671 12.0584C279.671 12.7565 279.465 13.3109 279.055 13.7216C278.644 14.1323 278.131 14.3376 277.515 14.3376C276.981 14.3376 276.591 14.2349 276.344 14.0296C276.098 13.8243 275.872 13.6189 275.667 13.4136C275.461 13.2083 275.133 13.1056 274.681 13.1056C273.696 13.1056 273.08 13.6395 272.833 14.7072C272.71 15.1179 272.71 15.4669 272.833 15.7544C272.997 16.0419 273.223 16.3293 273.511 16.6168C274.496 17.5613 275.256 18.7112 275.79 20.0664C276.365 21.4216 276.652 22.9205 276.652 24.5632C276.652 26.5344 276.242 28.3003 275.42 29.8608C274.64 31.4213 273.552 32.6533 272.156 33.5568C270.8 34.4603 269.26 34.912 267.536 34.912C266.796 34.912 266.16 35.0763 265.626 35.4048C265.092 35.6923 264.558 36.1235 264.024 36.6984L262.977 37.8688C262.443 38.5259 262.279 39.1624 262.484 39.7784C262.731 40.3533 263.306 40.6408 264.209 40.6408H269.507C272.464 40.6408 274.804 41.38 276.529 42.8584C278.254 44.2957 279.116 46.2875 279.116 48.8336C279.116 50.8459 278.541 52.6323 277.392 54.1928C276.242 55.7533 274.702 56.9853 272.772 57.8888C270.883 58.7923 268.747 59.244 266.365 59.244ZM267.474 33.372C268.952 33.372 270.123 32.5712 270.985 30.9696C271.848 29.368 272.279 27.1915 272.279 24.44C272.279 21.7707 271.827 19.6352 270.924 18.0336C270.061 16.3909 268.911 15.5696 267.474 15.5696C266.037 15.5696 264.866 16.3909 263.963 18.0336C263.1 19.6352 262.669 21.7707 262.669 24.44C262.669 27.1915 263.1 29.368 263.963 30.9696C264.825 32.5712 265.996 33.372 267.474 33.372ZM267.104 57.8888C268.583 57.8888 269.938 57.5603 271.17 56.9032C272.402 56.2461 273.367 55.3221 274.065 54.1312C274.804 52.9813 275.174 51.6672 275.174 50.1888C275.174 48.3408 274.62 46.924 273.511 45.9384C272.443 44.9117 270.924 44.3984 268.952 44.3984H267.536C266.263 44.3984 265.297 44.5216 264.64 44.768C264.024 45.0144 263.429 45.4456 262.854 46.0616C261.581 47.4168 260.78 48.5051 260.452 49.3264C260.123 50.1477 259.959 50.9896 259.959 51.852C259.959 53.6589 260.575 55.1168 261.807 56.2256C263.08 57.3344 264.846 57.8888 267.104 57.8888ZM279.569 46C278.953 46 278.645 45.7741 278.645 45.3224C278.645 44.9528 278.912 44.7064 279.446 44.5832L280.185 44.46C281.047 44.2957 281.602 44.0493 281.848 43.7208C282.135 43.3512 282.279 42.7352 282.279 41.8728V21.1752C282.279 20.436 282.156 19.9432 281.91 19.6968C281.704 19.4093 281.314 19.2245 280.739 19.1424L279.446 18.9576C278.912 18.9165 278.645 18.6907 278.645 18.28C278.645 17.9515 278.973 17.7256 279.63 17.6024C280.903 17.3971 281.868 17.0685 282.526 16.6168C283.224 16.1651 283.942 15.6107 284.682 14.9536C285.051 14.584 285.359 14.3992 285.606 14.3992C285.975 14.3992 286.16 14.6456 286.16 15.1384V17.9104C286.16 18.28 286.283 18.5264 286.53 18.6496C286.817 18.7317 287.125 18.6085 287.454 18.28C289.096 16.7195 290.534 15.6517 291.766 15.0768C293.039 14.5019 294.373 14.2144 295.77 14.2144C297.618 14.2144 299.096 14.8715 300.205 16.1856C301.314 17.4587 301.868 19.3477 301.868 21.8528V41.8728C301.868 42.7352 301.991 43.3512 302.238 43.7208C302.525 44.0493 303.1 44.2752 303.962 44.3984L305.318 44.5832C305.769 44.6653 305.995 44.9117 305.995 45.3224C305.995 45.7741 305.749 46 305.256 46H294.907C294.332 46 294.045 45.7741 294.045 45.3224C294.045 44.9117 294.271 44.6653 294.722 44.5832L295.585 44.46C296.447 44.3368 297.002 44.0904 297.248 43.7208C297.535 43.3512 297.679 42.7352 297.679 41.8728V22.5304C297.679 20.5181 297.31 19.1013 296.57 18.28C295.831 17.4587 294.784 17.048 293.429 17.048C292.115 17.048 290.924 17.4381 289.856 18.2184C288.829 18.9576 288.008 19.9637 287.392 21.2368C286.776 22.4688 286.468 23.8445 286.468 25.364V41.8728C286.468 42.7352 286.591 43.3512 286.838 43.7208C287.125 44.0904 287.7 44.3163 288.562 44.3984L290.226 44.5832C290.677 44.6653 290.903 44.8912 290.903 45.2608C290.903 45.7536 290.595 46 289.979 46H279.569Z" fill="url(#paint2_radial_419_431)" fill-opacity="0.9"/>
<defs>
<linearGradient id="paint0_linear_419_431" x1="11.9937" y1="83.125" x2="60.2781" y2="-1.45628" gradientUnits="userSpaceOnUse">
<stop stop-color="#1E1922" stop-opacity="0.77"/>
<stop offset="1" stop-color="#CE866F" stop-opacity="0"/>
</linearGradient>
<radialGradient id="paint1_radial_419_431" cx="0" cy="0" r="1" gradientUnits="userSpaceOnUse" gradientTransform="translate(307 7.775) rotate(151.285) scale(66.3964 222.86)">
<stop stop-color="#4E4951"/>
<stop offset="1" stop-color="#D1B8AE" stop-opacity="0"/>
</radialGradient>
<radialGradient id="paint2_radial_419_431" cx="0" cy="0" r="1" gradientUnits="userSpaceOnUse" gradientTransform="translate(206.9 -10.925) rotate(87.7395) scale(36.6035 254.636)">
<stop stop-color="#29282C"/>
<stop offset="1" stop-color="#B5AFD9" stop-opacity="0"/>
</radialGradient>
</defs>
</svg>
